<?xml version="1.0" encoding="UTF-8" standalone="no"?>
<!-- Created with Inkscape (http://www.inkscape.org/) -->

<svg
   xmlns:dc="http://purl.org/dc/elements/1.1/"
   xmlns:cc="http://creativecommons.org/ns#"
   xmlns:rdf="http://www.w3.org/1999/02/22-rdf-syntax-ns#"
   xmlns:svg="http://www.w3.org/2000/svg"
   xmlns="http://www.w3.org/2000/svg"
   xmlns:sodipodi="http://sodipodi.sourceforge.net/DTD/sodipodi-0.dtd"
   xmlns:inkscape="http://www.inkscape.org/namespaces/inkscape"
   version="1.1"
   id="svg4518"
   width="839.60516"
   height="103.62915"
   viewBox="0 0 839.60515 103.62915"
   sodipodi:docname="growth.svg"
   inkscape:version="0.92.4 (5da689c313, 2019-01-14)">
  <metadata
     id="metadata4524">
    <rdf:RDF>
      <cc:Work
         rdf:about="">
        <dc:format>image/svg+xml</dc:format>
        <dc:type
           rdf:resource="http://purl.org/dc/dcmitype/StillImage" />
        <dc:title></dc:title>
      </cc:Work>
    </rdf:RDF>
  </metadata>
  <defs
     id="defs4522" />
  <sodipodi:namedview
     pagecolor="#ffffff"
     bordercolor="#666666"
     borderopacity="1"
     objecttolerance="10"
     gridtolerance="10"
     guidetolerance="10"
     inkscape:pageopacity="0"
     inkscape:pageshadow="2"
     inkscape:window-width="1869"
     inkscape:window-height="829"
     id="namedview4520"
     showgrid="false"
     inkscape:zoom="1.5094641"
     inkscape:cx="421.12803"
     inkscape:cy="-42.113815"
     inkscape:window-x="-1"
     inkscape:window-y="88"
     inkscape:window-maximized="0"
     inkscape:current-layer="svg4518" />
  <path
     style="fill:#000000;stroke-width:0.31999999"
     d="m 334.15291,102.74919 c 0.43127,-1.94788 0.85229,-2.967422 1.72011,-4.165412 1.93994,-2.67801 2.03495,-3.04677 1.42821,-5.54312 -0.4282,-1.76178 -0.5032,-3.06126 -0.35453,-6.14296 0.10369,-2.14968 0.35092,-4.46201 0.54938,-5.13851 0.19846,-0.67651 0.30376,-1.28709 0.234,-1.35685 -0.0697,-0.0698 -0.86912,0.24307 -1.77635,0.69516 -1.66821,0.8313 -3.03229,2.26624 -4.0566,4.26732 -0.55766,1.08942 -0.5551,1.10681 0.45034,3.06711 1.24062,2.41886 1.61976,5.66208 0.97574,8.34668 -0.23227,0.96822 -0.55714,1.84373 -0.72191,1.94557 -0.16656,0.10294 -0.21853,-0.0813 -0.11705,-0.41491 0.63355,-2.08265 0.86884,-4.04216 0.6902,-5.74809 -0.20938,-1.9995 -1.48266,-5.25199 -2.05605,-5.25199 -0.17672,0 -0.693,1.116 -1.14729,2.48 -0.65131,1.95555 -0.78842,2.19073 -0.64837,1.11213 l 0.17761,-1.36788 -1.36504,0.87039 c -2.66388,1.69857 -4.00798,3.42007 -4.9008,6.27689 -0.38753,1.24001 -0.42268,1.27126 -0.43704,0.38847 -0.009,-0.528 0.41378,-1.73901 0.9386,-2.69112 0.5248,-0.95212 0.9542,-1.78508 0.9542,-1.85103 0,-0.0659 -0.756,-0.0234 -1.68,0.0947 -1.74557,0.22291 -3.16711,0.79267 -4.20675,1.68609 -0.50747,0.43609 -0.58367,0.44287 -0.46564,0.0414 0.21666,-0.73692 2.8815,-1.93032 4.96937,-2.22544 3.16013,-0.44668 6.1873,-2.68134 7.61503,-5.62143 0.55371,-1.14022 0.92602,-2.07067 0.82736,-2.06766 -0.0986,0.003 -1.19196,0.25972 -2.42955,0.57046 -2.03964,0.51213 -4.62982,1.98227 -4.62982,2.62782 0,0.13628 -0.21648,0.33085 -0.48107,0.43238 -0.42685,0.1638 -0.42743,0.10274 -0.005,-0.54182 0.83571,-1.27546 2.26869,-2.08499 5.1044,-2.8836 2.37821,-0.66977 2.99601,-0.99833 4.43345,-2.3578 0.91859,-0.86877 2.33297,-1.83271 3.14305,-2.14208 1.3649,-0.521261 1.53736,-0.718981 2.35228,-2.696661 1.45243,-3.52487 1.45727,-8.69417 0.008,-8.69417 -0.27537,0 -1.05211,-0.28132 -1.72608,-0.62516 l -1.22542,-0.62516 -0.76184,0.81631 c -0.41901,0.44896 -1.28967,1.087 -1.93481,1.41787 -1.32377,0.67891 -1.4462,1.03339 -1.69871,4.91861 -0.0909,1.39835 -0.30471,2.68193 -0.47516,2.85238 -0.19989,0.19989 -0.23855,-0.12989 -0.10889,-0.92891 l 0.20104,-1.23881 -1.84403,1.58643 c -1.01422,0.87254 -2.40454,2.45044 -3.08961,3.506441 -0.68507,1.056 -1.24695,1.73714 -1.24862,1.51364 -0.006,-0.775 1.5277,-2.804841 3.79661,-5.025431 1.83508,-1.79602 2.28033,-2.42125 2.28033,-3.20211 0,-0.53368 0.14153,-1.46384 0.31452,-2.06702 0.17299,-0.60318 0.26251,-1.14871 0.19893,-1.21229 -0.18136,-0.18137 -3.09357,0.5984 -4.56775,1.22306 -1.51249,0.64088 -3.7779,2.56814 -4.59877,3.91234 -0.49821,0.81583 -0.50703,1.04555 -0.0921,2.4 0.267,0.87164 0.38099,2.032931 0.27266,2.777811 -0.32098,2.20724 -0.6719,2.14677 -0.55126,-0.095 0.0635,-1.179751 -0.0197,-2.502271 -0.1848,-2.938951 -0.29876,-0.79004 -0.30354,-0.78768 -0.97168,0.48 -0.36929,0.70068 -0.6778,1.08821 -0.68558,0.8612 -0.0192,-0.56001 1.18002,-2.87322 2.15001,-4.14725 0.78515,-1.03126 0.78603,-1.04 0.1047,-1.04 -0.67945,0 -3.81051,1.46329 -4.92519,2.30177 -0.42782,0.32182 -0.60285,0.96752 -0.67927,2.50588 -0.0566,1.1398 -0.33755,2.630601 -0.62428,3.312891 l -0.52133,1.24054 1.1025,1.22035 c 1.94002,2.14736 2.64087,4.41195 1.77598,5.73857 -0.21551,0.33057 -0.25256,0.0236 -0.11899,-0.98607 0.22895,-1.73076 -0.2397,-2.81111 -1.91999,-4.42606 l -1.13633,-1.09214 -0.68295,1.57214 c -0.37562,0.86467 -0.79301,2.58013 -0.92752,3.81213 l -0.24458,2.24 -0.0367,-1.76 c -0.0324,-1.55592 0.51044,-3.61566 1.71647,-6.51234 0.23294,-0.55948 0.19522,-0.56493 -0.68003,-0.0983 -1.63077,0.86952 -3.02338,2.29893 -3.81565,3.9165 -0.5021,1.02513 -0.77447,1.34213 -0.78099,0.90896 -0.0178,-1.18371 1.80864,-3.44701 3.85324,-4.77486 2.16135,-1.40367 2.53676,-2.03063 2.53676,-4.236611 v -1.47495 l -0.8,0.75156 c -1.13415,1.06548 -0.99199,0.56093 0.23603,-0.8377 l 1.03603,-1.17998 -2.33641,0.23023 c -2.57364,0.2536 -4.37518,0.79831 -6.03688,1.82529 -1.30302,0.80531 -1.82251,1.54828 -2.68453,3.839411 -0.61624,1.63787 -0.64,1.66082 -0.4821,0.46587 0.48782,-3.691791 3.79604,-6.045731 9.21752,-6.558651 2.43559,-0.23043 3.43645,-0.49014 4.97526,-1.291 1.05948,-0.5514 2.47305,-1.09127 3.14126,-1.1997 0.66821,-0.10844 1.80911,-0.59817 2.53533,-1.08829 1.24429,-0.83976 3.70795,-1.75637 6.80269,-2.53096 1.47985,-0.3704 3.5958,-2.00741 3.5958,-2.7819 0,-0.33154 -0.17409,-0.41035 -0.56,-0.25353 -1.55859,0.63336 -2.7001,0.78095 -5.80788,0.75093 -3.43983,-0.0332 -5.50651,0.4648 -7.63212,1.83919 -0.396,0.25605 -0.72,0.33107 -0.72,0.16672 0,-0.16436 0.684,-0.63568 1.52,-1.04738 l 1.52,-0.74855 -2.08,-0.19766 c -1.144,-0.10872 -2.59117,-0.13092 -3.21594,-0.0494 -0.99092,0.12939 -1.22454,0.34146 -1.83001,1.66127 -0.38175,0.83212 -1.29106,2.19116 -2.02071,3.02007 -1.30799,1.48597 -3.17334,2.75298 -3.17334,2.15545 0,-0.16865 0.26078,-0.38942 0.57952,-0.49058 0.31874,-0.10117 1.07474,-0.70586 1.68,-1.34376 1.05566,-1.11259 1.0679,-1.15253 0.30048,-0.9806 -0.44,0.0986 -1.48098,0.27746 -2.31327,0.39752 -1.98468,0.28629 -4.59846,1.883 -5.91363,3.61252 -1.22433,1.61005 -1.42058,1.38448 -0.26939,-0.30965 0.93187,-1.37138 3.36706,-3.05713 4.95735,-3.43172 5.18955,-1.22242 4.88918,-1.09458 5.54033,-2.35799 0.33859,-0.65696 0.56679,-1.32633 0.50711,-1.48749 -0.0597,-0.16116 -0.9725,-0.0219 -2.0285,0.3095 -2.73294,0.85764 -3.01136,0.55005 -0.32,-0.35353 2.08548,-0.70016 2.8114,-0.75828 10.52322,-0.84247 4.80981,-0.0525 8.72237,-0.23536 9.33048,-0.43605 l 1.04726,-0.34563 -0.61048,-1.73693 c -0.33577,-0.95531 -0.61048,-2.19037 -0.61048,-2.74458 0,-0.791 -0.30524,-1.27633 -1.41968,-2.2573 -2.08489,-1.8352 -3.38032,-4.61878 -3.38032,-7.26354 0,-1.86516 0.13743,-2.321599 1.27609,-4.238249 2.46278,-4.14548 6.27739,-6.42085 10.88391,-6.49212 1.96902,-0.0305 2.71987,0.11289 4.1813,0.79829 3.62614,1.70065 5.74547,4.97335 5.99333,9.254979 0.12389,2.14001 0.0438,2.60801 -0.6858,4.00633 -1.05243,2.01713 -1.75284,2.89177 -2.93921,3.67033 -0.91009,0.59725 -0.95141,0.72664 -0.99249,3.10807 -0.0236,1.36668 -0.0956,2.91412 -0.16,3.43875 -0.10602,0.86338 0.004,0.99533 1.16287,1.39066 0.94985,0.32412 2.02282,0.3738 4.16,0.1926 1.584,-0.1343 3.888,-0.22633 5.12,-0.20451 11.16281,0.19771 12.55336,0.27634 14.24,0.80518 1.73917,0.54531 3.02054,1.17167 2.4,1.17316 -0.176,3.2e-4 -1.184,-0.26981 -2.24,-0.60052 -2.00117,-0.6267 -3.59733,-0.78118 -7.35429,-0.71174 l -2.23428,0.0413 1.11428,0.76263 c 0.61286,0.41945 1.45359,1.22632 1.86829,1.79304 0.86878,1.18725 2.59019,2.01839 5.326,2.57153 1.056,0.21351 2.712,0.78402 3.68,1.26781 0.968,0.48378 2.42455,0.97672 3.23679,1.09542 0.81223,0.11871 1.74823,0.43767 2.08,0.70882 0.58602,0.47896 0.58498,0.48641 -0.0368,0.26162 -0.352,-0.12726 -1.06689,-0.3039 -1.58864,-0.39252 l -0.94865,-0.16114 1.30185,1.5664 c 1.42828,1.71853 2.17668,2.971811 1.92496,3.223541 -0.0893,0.0893 -0.38973,-0.27742 -0.66767,-0.814881 -0.80326,-1.55333 -3.72255,-4.33107 -5.39856,-5.13679 -0.84518,-0.40631 -1.5959,-0.67954 -1.66826,-0.60718 -0.0724,0.0724 0.0791,0.83173 0.3367,1.68749 0.25755,0.85576 0.47023,2.21704 0.47263,3.02507 0.007,2.407051 0.25124,2.863651 1.91291,3.578481 1.42704,0.61389 4.03307,2.85066 3.32128,2.85066 -0.17985,0 -0.67609,-0.37401 -1.10278,-0.83114 -0.76418,-0.81872 -2.84687,-2.04886 -3.46883,-2.04886 -0.45326,0 0.43098,2.35331 1.59516,4.24534 0.53617,0.8714 0.90494,1.65428 0.81948,1.73974 -0.23951,0.23951 -1.84542,-2.43711 -2.53494,-4.22508 -0.33936,-0.88 -0.72927,-2.968 -0.86646,-4.640001 -0.13718,-1.672 -0.49322,-3.64261 -0.7912,-4.37914 -0.49496,-1.2234 -0.67819,-1.3684 -2.11989,-1.67759 -0.86796,-0.18614 -2.06955,-0.54378 -2.6702,-0.79475 l -1.09208,-0.4563 0.45659,1.29412 c 0.25113,0.71177 0.4566,1.44882 0.4566,1.6379 0,0.60578 -0.48999,-0.20566 -0.93249,-1.54424 -1.10131,-3.33155 -2.97991,-4.96767 -6.63841,-5.78162 -1.51144,-0.33626 -2.62257,-0.43102 -3.00267,-0.25608 -0.55801,0.25682 -0.51648,0.38185 0.55217,1.66243 0.63556,0.7616 2.16495,2.0936 3.39866,2.96 1.23371,0.8664 2.05814,1.57527 1.83206,1.57527 -0.74147,0 -4.79578,-3.23651 -5.79195,-4.62366 l -0.97464,-1.35716 -3.17773,0.15302 c -2.00722,0.0967 -3.696,0.008 -4.58478,-0.24094 -1.22924,-0.34416 -1.51553,-0.32288 -2.26535,0.16842 l -0.85828,0.56237 0.7417,0.73505 c 0.40794,0.40427 2.59428,1.4672 4.85853,2.36206 4.3171,1.70616 7.13136,3.38008 8.71487,5.18359 0.51935,0.59152 1.66027,1.34449 2.53617,1.67381 0.87567,0.32924 1.9808,0.86978 2.45584,1.20121 0.56798,0.39628 1.13562,0.534361 1.65788,0.40328 0.89248,-0.224 4.35842,0.675851 4.35842,1.131561 0,0.16211 -0.49938,0.0861 -1.10973,-0.16894 -0.61034,-0.25502 -1.70156,-0.46367 -2.42493,-0.46367 h -1.31522 l 1.16421,1.36 c 0.64031,0.748 1.57797,2.224 2.08369,3.28 0.99658,2.08096 1.56298,4.21144 1.03247,3.88357 -0.17487,-0.10807 -0.41805,-0.73014 -0.54041,-1.38236 -0.54821,-2.92219 -3.57058,-6.9034 -6.28502,-8.278911 -0.84908,-0.43026 -1.68448,-0.7823 -1.85643,-0.7823 -0.17196,0 -0.0392,0.61812 0.29496,1.3736 0.33418,0.755471 0.68806,2.015471 0.78639,2.800001 0.16526,1.3186 0.13448,1.27883 -0.40739,-0.52615 -1.13192,-3.770491 -3.21744,-6.316161 -6.74926,-8.238421 -1.50771,-0.8206 -1.63333,-0.84212 -1.63333,-0.27986 0,1.04271 0.88881,3.62178 1.46916,4.26305 0.30447,0.33644 0.47417,0.69111 0.37712,0.78817 -0.54073,0.54073 -2.16628,-3.08213 -2.16628,-4.82798 0,-1.01523 -0.0532,-1.05206 -3.26042,-2.25507 -1.79323,-0.67264 -3.70123,-1.59551 -4.24,-2.05082 -0.87215,-0.73705 -1.19993,-0.81473 -2.98867,-0.7083 l -2.00908,0.11954 0.24279,1.17112 c 0.13353,0.64412 0.24562,1.67512 0.24908,2.29112 0.009,1.57224 1.81449,3.28256 5.55078,5.25774 1.73408,0.91672 3.40996,2.07163 4,2.756571 0.55853,0.64835 1.37552,1.28902 1.81552,1.4237 2.39652,0.73356 5.07407,2.66238 6.3104,4.54583 0.25411,0.3871 0.99022,0.87293 1.63581,1.0796 1.92298,0.61561 4.13393,2.46936 5.06454,4.2463 0.79532,1.51862 0.28148,1.26972 -0.78888,-0.38213 -1.02783,-1.58621 -2.89772,-3.0637 -4.3334,-3.42403 l -0.80331,-0.20162 0.46203,1.53519 c 0.25411,0.84436 0.40749,1.68542 0.34085,1.86902 -0.0666,0.18361 -0.29975,-0.31336 -0.518,-1.10437 -0.8929,-3.2361 -2.66074,-5.46835 -5.4501,-6.88183 -0.86827,-0.43998 -1.71064,-0.79997 -1.87194,-0.79997 -0.16131,0 -0.006,0.94141 0.34528,2.09202 0.54428,1.78317 0.59242,2.40913 0.32609,4.24 l -0.31247,2.14798 -0.0435,-2.74299 c -0.0246,-1.54919 -0.26444,-3.39157 -0.55122,-4.2332 -0.68626,-2.01408 -3.02085,-4.398681 -5.5382,-5.656861 l -2.04598,-1.02257 0.16139,2.83046 c 0.16904,2.964731 1.06825,5.415941 2.59833,7.082931 0.50727,0.55266 0.54532,0.68717 0.15166,0.53611 -1.5655,-0.60074 -3.19208,-4.6447 -3.31026,-8.229891 l -0.0816,-2.47601 -1.63378,-1.29143 c -0.89858,-0.71029 -1.63378,-1.13307 -1.63378,-0.93951 0,0.19355 -0.65277,2.02135 -1.45059,4.06178 -0.79782,2.040431 -1.5341,4.513421 -1.63616,5.495531 l -0.18557,1.78565 2.77819,1.88488 c 1.528,1.03668 3.00083,2.22468 3.27296,2.64 0.33275,0.50785 0.80045,0.75512 1.42825,0.75512 0.51341,0 1.46885,0.2233 2.12319,0.49622 1.24763,0.52037 3.26973,2.2754 3.26973,2.83787 0,0.1807 -0.42973,-0.14195 -0.95495,-0.71699 -1.04889,-1.14839 -2.72897,-1.9771 -4.00827,-1.9771 h -0.82376 l 0.79695,1.36 c 0.43833,0.748 0.88068,2.008 0.983,2.8 0.18338,1.41944 0.17674,1.41258 -0.46457,-0.48 -1.00893,-2.97744 -2.74027,-5.18484 -5.68637,-7.24995 l -2.58208,-1.80996 -0.18726,1.00996 c -0.10298,0.55547 -0.0519,2.18807 0.11351,3.62799 0.32695,2.84603 0.84519,4.06347 3.51137,8.24887 0.89408,1.403552 1.61612,2.911922 1.60838,3.360002 -0.0124,0.71786 -0.0611,0.68191 -0.41543,-0.30691 -0.22076,-0.616 -1.17209,-2.272 -2.11408,-3.680002 -2.0147,-3.01142 -1.98801,-2.98002 -2.15041,-2.52953 -0.0695,0.19276 -0.76249,1.31902 -1.54,2.5028 -0.87135,1.32666 -1.49519,2.695992 -1.62618,3.569532 -0.11689,0.77946 -0.34292,1.4172 -0.50229,1.4172 -0.15936,0 -0.20208,-0.396 -0.0949,-0.88 z m 9.49683,-34.656683 c 0.65971,-0.18321 1.59571,-0.69691 2.08,-1.14156 l 0.88053,-0.80845 -1.06687,0.74335 c -0.92792,0.64653 -1.42804,0.73926 -3.84,0.71202 -1.7545,-0.0198 -3.30208,-0.23033 -4.21313,-0.5731 -1.28714,-0.48425 -1.38555,-0.48713 -0.92704,-0.0271 1.24374,1.24777 4.64418,1.77314 7.08651,1.09487 z m 2.18678,-2.14837 c 0.83812,-0.93803 0.93297,-1.26573 0.92615,-3.2 -0.005,-1.54742 -0.23058,-2.69624 -0.79852,-4.07495 -0.435,-1.056 -0.79159,-2.15437 -0.7924,-2.44082 -9.6e-4,-0.28645 -0.20839,-0.69253 -0.46128,-0.90241 -0.67445,-0.55974 -5.48812,-1.32545 -6.9066,-1.09863 -1.21355,0.19406 -1.22614,0.21155 -2.04733,2.8454 -1.05694,3.38997 -1.08829,5.91215 -0.0954,7.67646 0.98635,1.75273 2.91423,2.43338 6.57541,2.32149 2.56306,-0.0783 2.70239,-0.12194 3.6,-1.12654 z m -12.02163,-7.5448 c -1.02797,-1.90883 0.0186,-3.72622 2.54163,-4.41366 1.78255,-0.48569 6.23792,-0.13668 7.93212,0.62136 1.96163,0.8777 2.60864,1.71545 2.38574,3.08905 -0.10008,0.61676 -0.0411,1.20843 0.13103,1.31482 0.97732,0.60402 3.90767,-3.00509 4.47896,-5.51642 0.68457,-3.00933 -0.76895,-7.037459 -3.36048,-9.312849 -2.05936,-1.80815 -2.97977,-2.13999 -5.95362,-2.1465 -3.65333,-0.008 -6.20247,0.95833 -8.46039,3.20712 -3.70944,3.69447 -4.48156,7.166419 -2.43812,10.963379 1.02458,1.90379 2.77462,3.81411 3.15011,3.43862 0.0942,-0.0942 -0.089,-0.6544 -0.40698,-1.24492 z m 1.5995,-1.89728 c 0.31255,-0.83993 0.49747,-1.59794 0.41093,-1.68448 -0.0865,-0.0865 -0.53933,0.14312 -1.0062,0.51036 -0.60841,0.47857 -0.84885,0.96327 -0.84885,1.71114 0,2.03852 0.56371,1.82889 1.44412,-0.53702 z m 11.03588,0.94829 c 0,-0.23036 -0.21403,-0.69836 -0.47561,-1.04 -0.43512,-0.56829 -0.44607,-0.53264 -0.12869,0.41884 0.36222,1.08592 0.6043,1.33475 0.6043,0.62116 z m -60.4288,44.799663 c -0.0282,-0.49455 -0.80721,-2.350172 -1.73121,-4.123612 -1.59723,-3.06556 -1.68,-3.34446 -1.68,-5.66081 0,-2.50661 0.11166,-2.85248 1.90806,-5.91075 l 0.91302,-1.55435 -0.97242,0.50286 c -0.91677,0.47408 -2.00948,1.60225 -2.86984,2.96297 -0.20965,0.33158 -0.38965,0.44417 -0.4,0.25019 -0.0349,-0.65445 1.42858,-2.50706 2.5488,-3.22644 2.21997,-1.42564 2.26241,-1.48355 2.52684,-3.4483 0.31505,-2.340821 -0.001,-3.581181 -1.48355,-5.813321 -1.02133,-1.53824 -1.69091,-1.94318 -1.69091,-1.02262 0,0.18638 -0.432,0.83089 -0.96,1.43225 -1.24688,1.42012 -1.30432,2.84795 -0.136,3.380271 0.81622,0.3719 1.74789,1.75326 1.72319,2.55495 -0.007,0.22874 -0.23848,-0.0161 -0.5143,-0.54411 -0.86454,-1.655 -2.27186,-2.430211 -1.70497,-0.93917 0.40971,1.07763 0.4007,3.01917 -0.014,3.01917 -0.18634,0 -0.2417,-0.33626 -0.12917,-0.78461 0.10831,-0.43154 -0.0474,-1.52033 -0.34611,-2.41955 -0.29867,-0.89921 -0.47068,-1.911641 -0.38224,-2.249831 0.2116,-0.80917 -0.42696,-0.4587 -2.25638,1.238421 -1.20087,1.11401 -1.35975,1.4251 -1.35781,2.65861 0.002,1.22833 0.13319,1.48617 1.0875,2.13595 0.59693,0.40644 1.49595,0.86206 1.99782,1.01249 l 0.91249,0.27351 -0.83535,0.0275 c -0.45944,0.0151 -1.34038,-0.31522 -1.95764,-0.73411 l -1.1223,-0.76161 0.22667,1.00161 c 0.12466,0.55088 0.69728,2.0096 1.2725,3.2416 1.70721,3.65654 1.93612,4.55289 1.93612,7.58127 0,1.57345 0.15334,3.14732 0.34075,3.49751 0.18742,0.350192 0.28354,0.808342 0.21362,1.018112 -0.0715,0.21447 -0.30339,0.0521 -0.52982,-0.37102 -0.2318,-0.43312 -0.43858,-2.198132 -0.48726,-4.159142 -0.0661,-2.66136 -0.23522,-3.74623 -0.77315,-4.95844 l -0.68859,-1.55172 -1.11322,1.55172 c -1.79612,2.5036 -2.1628,3.34478 -2.13245,4.89196 0.0204,1.03824 -0.0593,1.32115 -0.27573,0.97975 -0.78375,-1.23606 -0.21905,-3.02138 1.78689,-5.6493 1.27152,-1.66579 1.33963,-2.35642 0.45395,-4.60341 -0.35476,-0.90002 -0.67876,-2.40503 -0.72,-3.34447 -0.0897,-2.04353 -0.44423,-1.90705 -1.69689,0.65329 -0.88558,1.81007 -1.15436,4.83879 -0.63752,7.18389 0.19474,0.88359 0.16351,1.04041 -0.14796,0.74291 -0.21714,-0.20739 -0.46766,-1.39539 -0.55671,-2.64 -0.0891,-1.2446 -0.22461,-2.26291 -0.30125,-2.26291 -0.41396,0 -3.01656,2.04037 -3.31579,2.59948 -0.1929,0.36044 -0.42256,0.5835 -0.51037,0.49569 -0.34521,-0.34521 1.0164,-1.88483 2.36682,-2.67623 1.17893,-0.6909 1.60634,-1.22655 2.47905,-3.10688 1.06356,-2.29155 2.67019,-4.2255 5.2493,-6.318771 l 1.40368,-1.13925 -1.65454,-0.21948 c -2.01525,-0.26733 -3.67371,0.01 -4.29458,0.71713 -0.25498,0.29057 -0.79621,1.4517 -1.20274,2.580291 -0.40653,1.12858 -1.25132,2.66718 -1.87732,3.41911 -0.62599,0.75193 -1.42617,1.83091 -1.77817,2.39774 -0.352,0.56683 -1,1.25777 -1.44,1.53542 -0.62068,0.39167 -0.53101,0.20099 0.4,-0.85064 0.66,-0.7455 1.2,-1.42428 1.2,-1.50841 0,-0.0841 -0.648,-0.0641 -1.44,0.0444 -1.04016,0.14257 -1.44,0.0869 -1.44,-0.20036 0,-0.21875 0.21194,-0.3164 0.47098,-0.217 0.74551,0.28608 2.47604,-0.4305 3.60268,-1.49181 0.85899,-0.80917 2.64634,-4.482361 2.64634,-5.438501 0,-0.43373 -1.40003,0.47043 -2.94629,1.90275 -0.82846,0.767421 -1.76446,1.394761 -2.08,1.394111 -0.4134,-9.6e-4 -0.30546,-0.1669 0.38629,-0.59419 0.528,-0.32614 1.22603,-0.892451 1.55118,-1.258451 0.58435,-0.65779 0.57847,-0.66785 -0.50946,-0.87195 -2.16652,-0.40644 -2.92021,-0.12134 -3.37692,1.27738 -0.42146,1.290801 -1.31589,2.543981 -1.60754,2.252331 -0.088,-0.088 0.0835,-0.42904 0.38106,-0.75787 0.29758,-0.32883 0.66991,-1.04714 0.82739,-1.596241 l 0.28633,-0.99837 -1.15148,0.48112 c -0.63331,0.26462 -1.34252,0.63967 -1.57602,0.833461 -0.28561,0.23703 -0.42454,0.2425 -0.42454,0.0167 0,-0.184611 0.7726,-0.713651 1.7169,-1.175651 1.45877,-0.71371 2.09625,-0.83156 4.24,-0.78385 2.0445,0.0455 2.8266,-0.0846 4.1231,-0.68561 1.22072,-0.56594 2.33567,-0.77365 4.70348,-0.87625 2.4565,-0.10643 3.21127,-0.25356 3.62049,-0.70575 0.69089,-0.76343 0.69405,-2.16578 0.008,-3.49272 -0.4099,-0.79265 -0.52487,-1.58965 -0.42617,-2.9542 l 0.13517,-1.86869 h -1.66618 c -2.16785,0 -2.51839,0.81697 -1.68596,3.92933 0.26268,0.98216 0.27242,1.65052 0.0339,2.32459 -0.31414,0.88759 -0.33455,0.84716 -0.33005,-0.65392 0.003,-0.88 -0.16027,-2.015 -0.362,-2.52223 -0.34267,-0.86162 -0.40441,-0.88817 -0.93942,-0.404 -0.31495,0.28503 -1.03129,0.67812 -1.59186,0.87354 -0.89434,0.31177 -1.01937,0.4985 -1.02042,1.524 -6.7e-4,0.64278 -0.28654,1.63669 -0.6353,2.20869 -0.88838,1.45706 -1.04793,1.29493 -0.31489,-0.32 0.63817,-1.40591 0.8244,-2.8 0.37404,-2.8 -0.98501,0 -4.86265,3.33691 -4.86265,4.18456 0,0.16249 -0.15823,0.29544 -0.35161,0.29544 -0.19658,0 -0.0602,-0.49382 0.30921,-1.12 l 0.66081,-1.12 -1.18921,0.007 c -1.23556,0.007 -3.66844,0.94453 -4.04861,1.55965 -0.1201,0.19432 -0.3715,0.35331 -0.55866,0.35331 -0.59208,0 0.42933,-0.97314 1.70391,-1.62339 0.72629,-0.37052 1.86082,-0.61661 2.84276,-0.61661 1.24106,0 1.88129,-0.18854 2.66185,-0.7839 0.56526,-0.43115 1.66884,-1.07093 2.4524,-1.42174 1.23554,-0.55316 1.34053,-0.67212 0.7909,-0.8961 -0.34856,-0.14204 -1.64175,-0.25263 -2.87375,-0.24574 -1.69452,0.009 -2.57874,0.19024 -3.63101,0.74232 -0.76506,0.4014 -1.46999,0.65084 -1.56651,0.55431 -0.0965,-0.0965 0.59312,-0.5316 1.53255,-0.96685 l 1.70804,-0.79134 -0.93204,-0.35437 c -0.51262,-0.1949 -1.18831,-0.28734 -1.50154,-0.20543 -0.31322,0.0819 -0.56949,0.0184 -0.56949,-0.14112 0,-0.42383 1.84686,-0.35435 2.66103,0.10012 0.38443,0.21458 1.63497,0.48537 2.77897,0.60174 1.144,0.11638 2.60697,0.31753 3.25106,0.44702 1.11361,0.22388 1.21994,0.16796 2.16716,-1.13964 l 0.99609,-1.37506 -0.97656,-0.41062 c -0.68144,-0.28652 -1.22177,-0.31738 -1.78799,-0.1021 -0.44628,0.16967 -1.18446,0.3085 -1.64039,0.3085 -0.45593,0 -1.31056,0.36733 -1.89917,0.81629 -0.58861,0.44895 -1.0702,0.67696 -1.0702,0.50669 0,-0.17028 0.396,-0.61939 0.88,-0.99802 l 0.88,-0.68843 -1.9138,0.16623 c -1.29769,0.11272 -1.76127,0.0662 -1.44,-0.14446 0.26059,-0.17089 1.3378,-0.29657 2.3938,-0.27929 1.056,0.0173 2.37759,0.0201 2.93687,0.006 l 1.01688,-0.0252 -0.17586,-1.70399 c -0.35908,-3.47908 1.3727,-6.84303 4.20923,-8.17635 2.85473,-1.34189 6.01956,-0.6458 8.23477,1.81121 1.61578,1.79215 2.23329,3.09518 2.25855,4.76585 0.026,1.72026 -0.82397,3.01386 -2.2665,3.44946 -1.10762,0.33446 -1.28515,0.83038 -0.52353,1.46247 0.39936,0.33143 0.99409,0.30131 3.20288,-0.16222 1.49599,-0.31394 3.22681,-0.48577 3.85933,-0.38312 1.21167,0.19662 3.32738,1.60106 3.32738,2.20876 0,0.19772 -0.324,0.0644 -0.72,-0.2963 -0.93136,-0.8483 -2.16214,-1.48031 -2.40663,-1.23582 -0.10549,0.10549 0.36807,0.76516 1.05236,1.46593 0.68429,0.70077 1.08317,1.27412 0.88641,1.27412 -0.19676,0 -0.92814,-0.648 -1.6253,-1.44 -0.79881,-0.9075 -1.53481,-1.44 -1.9903,-1.44 -1.2315,0 -4.79654,0.73737 -4.79654,0.99209 0,0.53441 1.75329,1.56573 3.7773,2.22186 1.17848,0.38204 2.65219,1.02104 3.27491,1.42002 0.62273,0.39898 1.58479,0.82481 2.1379,0.94629 0.55312,0.12148 1.17725,0.42762 1.38696,0.68031 0.46584,0.5613 0.18678,0.59216 -0.64686,0.0715 -0.8287,-0.51753 -1.20602,-0.0831 -0.55379,0.63764 0.65369,0.72232 1.51077,2.74777 1.48103,3.49997 -0.0124,0.31366 -0.22024,0.0321 -0.46185,-0.62569 -0.8092,-2.20296 -3.42868,-5.36403 -4.44501,-5.36403 -0.49465,0 -0.14016,3.11882 0.46784,4.11609 0.36082,0.59185 0.58404,1.14809 0.49604,1.23609 -0.29171,0.29172 -1.47207,-1.97734 -1.47329,-2.83218 -0.003,-1.95165 -0.36957,-2.7833 -1.39634,-3.16602 -2.68187,-0.99963 -3.50973,-1.47251 -4.50331,-2.57228 -0.59177,-0.65502 -1.17464,-1.5019 -1.29527,-1.88195 -0.19655,-0.61928 -0.37433,-0.6703 -1.71279,-0.49149 -2.09331,0.27965 -2.29347,0.37238 -2.29347,1.06252 0,0.8108 0.45513,1.14931 2.64887,1.9701 1.88796,0.70637 3.75112,2.02158 3.75112,2.64791 0,0.19354 -0.29217,0.0383 -0.64927,-0.34503 -0.35711,-0.38331 -1.05443,-0.90643 -1.5496,-1.16249 -1.30995,-0.67741 -4.3029,-1.78616 -4.44308,-1.64598 -0.0661,0.0661 0.0383,0.70835 0.23188,1.42731 0.51576,1.91535 1.47212,2.77188 3.5885,3.21387 2.30591,0.48158 5.39559,2.45489 6.53168,4.17163 0.5676,0.8577 1.36426,1.524871 2.33202,1.952961 1.54019,0.68129 2.91788,1.78358 2.91788,2.33459 0,0.17825 -0.396,-0.0464 -0.88,-0.49925 -0.484,-0.45283 -1.35817,-1.06473 -1.9426,-1.35977 l -1.0626,-0.53643 0.16876,1.3799 c 0.0928,0.75895 0.25492,2.15842 0.36025,3.10994 0.10532,0.95153 0.39955,2.13237 0.65384,2.62411 0.58362,1.12859 0.58691,1.4276 0.0105,0.94919 -0.53366,-0.44291 -1.03579,-2.55173 -1.31347,-5.51628 -0.24518,-2.61752 -1.35891,-4.536151 -3.57793,-6.163691 -1.47755,-1.08372 -5.39868,-2.66806 -5.74532,-2.32142 -0.25395,0.25395 1.14635,2.06182 2.82636,3.64901 1.58256,1.49513 2.50224,3.493201 2.50224,5.436331 0,1.47739 0.6886,2.953 1.90989,4.09271 1.51335,1.41225 2.762,4 1.93011,4 -0.176,0 -0.32,-0.32796 -0.32,-0.72879 0,-0.8801 -0.4772,-1.59311 -2.25815,-3.37407 l -1.35306,-1.35305 0.1696,2.7184 c 0.13518,2.16672 0.34199,3.01257 1.01909,4.16795 0.46722,0.79726 0.71231,1.44956 0.54463,1.44956 -0.16768,0 -0.67775,-0.74827 -1.13349,-1.66283 -0.76014,-1.5254 -0.82862,-1.99724 -0.82862,-5.70914 0,-4.49221 -0.41036,-6.40701 -1.7493,-8.162461 -1.09342,-1.43354 -1.48133,-1.40336 -1.07084,0.0833 0.45251,1.638871 0.10723,3.702991 -1.02369,6.119711 -0.52589,1.1238 -0.95616,2.23174 -0.95616,2.46209 0,0.23034 0.63575,1.05456 1.41279,1.8316 1.65732,1.65732 2.74559,3.3387 2.74287,4.23773 -9.6e-4,0.36804 -0.3189,-0.0399 -0.74787,-0.96 -0.41027,-0.88 -0.96316,-1.77962 -1.22865,-1.99916 -0.4077,-0.33714 -0.5614,-0.21283 -0.98921,0.8 -0.27857,0.65954 -0.57691,1.41516 -0.66295,1.67916 -0.10098,0.30979 -0.16542,0.23855 -0.18172,-0.20092 -0.0139,-0.37451 0.19685,-1.21252 0.46833,-1.86227 0.48437,-1.15926 0.47618,-1.20119 -0.43815,-2.24255 l -0.93175,-1.0612 -0.51877,1.08787 c -0.71073,1.49042 -0.93691,3.23592 -0.61432,4.74085 0.25186,1.17495 0.37661,1.28885 1.81299,1.65528 2.17574,0.55503 4.07845,2.53988 4.0138,4.18705 -0.0127,0.324772 -0.27459,0.0177 -0.6005,-0.70411 -0.77211,-1.71018 -1.9091,-2.7038 -3.36415,-2.93992 l -1.19903,-0.19457 1.33682,2.56169 c 1.00966,1.934802 1.30439,2.827352 1.20435,3.647252 -0.11676,0.95687 -0.13853,0.97896 -0.18367,0.18637 z m -1.17121,-35.433413 c 4.00589,-0.3779 4.58287,-0.70743 4.86031,-2.77589 0.2099,-1.5649 -0.42497,-3.02684 -2.18057,-5.02131 -1.3757,-1.56288 -2.73866,-2.16354 -4.90927,-2.16354 -2.79335,0 -4.64664,1.18867 -5.80784,3.72505 -1.14537,2.50183 -1.30166,4.28969 -0.46741,5.34686 1.00429,1.27265 2.63236,1.4428 8.50478,0.88883 z m 187.68,13.660341 c 0,-0.941731 -0.1612,-2.174671 -0.35823,-2.739861 l -0.35823,-1.02762 -0.73591,0.69135 c -0.40474,0.38024 -1.05736,1.43318 -1.45025,2.33987 -0.39289,0.906681 -0.77273,1.479911 -0.84408,1.273841 -0.17449,-0.5039 1.27594,-3.319321 2.08809,-4.053181 0.60772,-0.54915 0.62054,-0.67297 0.19459,-1.88024 -0.25079,-0.7108 -0.45598,-1.63427 -0.45598,-2.05214 0,-1.95135 -1.44168,0.24718 -2.07571,3.16542 -0.3617,1.66475 -0.43762,1.80292 -0.45885,0.83505 -0.0408,-1.86087 0.8132,-3.74585 2.69676,-5.9523 0.96679,-1.13252 1.7578,-2.1819 1.7578,-2.33197 0,-0.15006 -0.28878,-0.36449 -0.64173,-0.47652 -0.35294,-0.11202 -1.05198,-0.54888 -1.55341,-0.97081 l -0.9117,-0.76714 -1.24658,0.63523 c -1.04652,0.53329 -1.30978,0.87821 -1.6404,2.14925 -0.21661,0.83271 -0.39661,2.35109 -0.4,3.37417 -0.005,1.3562 -0.23697,2.33149 -0.8581,3.6 -0.46856,0.95692 -0.97499,1.73985 -1.12539,1.73985 -0.15041,0 0.0712,-0.684 0.49249,-1.52 0.82487,-1.63689 1.36096,-3.6 0.9831,-3.6 -0.12791,0 -1.10832,0.31932 -2.17868,0.70959 -1.29877,0.47355 -2.47296,1.2174 -3.52997,2.23622 -0.87112,0.83965 -1.64558,1.46491 -1.72103,1.38946 -0.0754,-0.0754 0.56226,-0.8317 1.41712,-1.68056 1.10087,-1.09316 2.21955,-1.80257 3.8348,-2.43184 l 2.28051,-0.88844 0.16074,-1.50722 c 0.0884,-0.82896 0.27414,-1.7815 0.41273,-2.11675 0.2478,-0.5994 0.23454,-0.5994 -0.79662,0 -0.57674,0.33525 -1.46471,1.11035 -1.97325,1.72245 -1.00156,1.20551 -1.24188,1.10877 -0.40782,-0.16417 0.69419,-1.05948 0.12629,-1.03775 -1.76869,0.0677 -0.99723,0.58173 -1.32163,0.6776 -1.01142,0.2989 0.60485,-0.73837 2.06301,-1.47531 2.91918,-1.47531 0.37821,0 1.57336,-0.51923 2.65589,-1.15385 1.08253,-0.63462 2.18423,-1.26682 2.44823,-1.40488 0.73998,-0.38699 0.44395,-2.14935 -0.72587,-4.32127 l -1.03413,-1.92 -0.10405,-5.76 c -0.0612,-3.38786 0.10353,-8.335719 0.4,-12.014349 0.70651,-8.76648 0.89094,-7.84557 -1.54598,-7.71964 -5.14062,0.26565 -10.37721,-2.63369 -12.73611,-7.05159 -0.64581,-1.20952 -0.73233,-1.81595 -0.72117,-5.05442 0.0108,-3.14157 0.14022,-4.05662 0.88433,-6.25408 2.07444,-6.12616 6.65189,-11.6255299 11.7868,-14.1607199 3.8569,-1.90421999 6.48392,-2.40493999 11.63618,-2.21789999 3.57623,0.12982 4.58232,0.29293 7.16941,1.16230999 1.65518,0.55622 4.31918,1.68616 5.92,2.51099 6.89582,3.55311 11.82682,11.0440299 11.84833,17.9993999 0.007,2.27444 -0.1291,3.01571 -0.83104,4.52523 -1.13187,2.43406 -4.25942,5.03802 -7.42775,6.18426 -2.25059,0.81422 -6.88996,1.76922 -8.59895,1.77007 -0.69951,3.2e-4 -0.87974,0.14811 -0.87871,0.72044 0.003,1.58368 1.02839,6.89723 2.23941,11.60273 1.68742,6.556539 1.75722,9.815469 0.29808,13.917269 -0.53217,1.496 -1.00175,3.17147 -1.04351,3.72327 -0.0795,1.04982 -0.36592,1.52864 -1.92864,3.22362 -0.77753,0.84334 -0.87618,1.11193 -0.55189,1.50267 0.3157,0.3804 0.92247,0.43855 3.02659,0.29006 2.25023,-0.1588 2.85557,-0.0867 4.17588,0.49733 0.84928,0.37568 2.07432,0.68305 2.72231,0.68305 0.64799,0 1.45768,0.22776 1.79932,0.50613 0.6125,0.49906 0.61224,0.50321 -0.0188,0.29758 -1.41472,-0.46096 -2.4,-0.55234 -2.4,-0.22259 0,0.18761 0.14323,0.42963 0.31828,0.53782 0.44437,0.27464 1.03881,1.44154 0.73298,1.43888 -0.13819,-0.001 -0.59069,-0.50063 -1.00554,-1.10984 -1.22697,-1.80178 -4.82589,-2.84332 -7.36463,-2.13135 -0.67396,0.189 -0.49949,0.35504 1.55861,1.48321 3.01003,1.64998 4.60233,3.57384 5.25314,6.34697 0.3467,1.47734 -0.32647,0.68746 -0.77284,-0.90681 -0.22428,-0.80107 -0.52651,-1.52986 -0.67162,-1.61954 -0.33489,-0.20698 -1.48752,2.03271 -1.8602,3.61457 l -0.28389,1.20497 -0.0321,-1.03291 c -0.0177,-0.5681 0.35617,-1.82468 0.83078,-2.79239 l 0.86293,-1.75948 -0.72278,-0.76936 c -0.39753,-0.42315 -1.87776,-1.39101 -3.2894,-2.15079 -1.41164,-0.75978 -2.81707,-1.69983 -3.12319,-2.08899 -0.50929,-0.64746 -0.67015,-0.67725 -1.89353,-0.35071 -1.64514,0.43911 -1.69117,0.90229 -0.29696,2.98847 0.81219,1.21528 1.25029,1.57467 2,1.64066 2.18415,0.19225 3.0757,0.46058 3.67789,1.10695 0.34944,0.37509 0.56339,0.75394 0.47543,0.84191 -0.088,0.088 -0.34698,-0.0959 -0.57559,-0.40853 -0.42865,-0.58621 -3.0001,-1.24168 -3.25475,-0.82963 -0.0788,0.12747 0.23187,0.5767 0.69035,0.99829 1.23983,1.14004 2.81699,5.086511 2.03277,5.086511 -0.17936,0 -0.32926,-0.324 -0.33312,-0.720001 -0.0128,-1.31233 -1.17672,-3.25732 -3.016,-5.04 -1.73867,-1.68517 -1.83545,-1.73359 -2.27642,-1.13884 -0.49142,0.66279 -0.58993,1.27486 -0.4923,3.05884 0.0468,0.8549 -0.0168,1.00639 -0.26859,0.64 -0.52291,-0.7609 -0.39454,-2.3071 0.29898,-3.60105 l 0.63864,-1.19157 -0.72137,-1.52369 c -0.64159,-1.35519 -0.848,-1.53433 -1.86652,-1.6199 l -1.14516,-0.0962 0.33149,1.61823 c 0.25433,1.24155 0.22357,2.08331 -0.13212,3.61621 -0.25498,1.09889 -0.45487,3.18272 -0.44419,4.63073 0.0208,2.823601 -0.0808,3.063481 -0.50353,1.189021 -0.24235,-1.074551 0.005,-3.751841 0.48662,-5.269671 0.1575,-0.49623 -0.0857,-0.4388 -1.58826,0.375 -0.97584,0.52853 -1.77425,1.07605 -1.77425,1.2167 0,0.14066 0.216,0.86795 0.48,1.6162 0.54323,1.53968 0.64401,4.160001 0.16,4.160001 -0.176,0 -0.32,-0.77051 -0.32,-1.71225 z m 0.96328,-5.489411 c 1.95461,-0.99048 2.65099,-2.17609 2.35722,-4.01326 -0.2556,-1.59843 -0.83438,-2.22508 -2.05514,-2.22508 -0.69553,0 -1.04629,0.22696 -1.39604,0.90331 -0.25691,0.49682 -0.69261,1.09045 -0.96822,1.31918 -0.2756,0.22873 -0.5011,0.76648 -0.5011,1.19499 0,0.87469 0.64372,3.62252 0.84863,3.62252 0.073,0 0.84455,-0.36075 1.71465,-0.80166 z m 4.79672,-6.71834 c 0,-0.35505 -0.37222,-0.48 -1.42996,-0.48 -1.1396,0 -1.39255,0.0975 -1.24576,0.48 0.12008,0.31293 0.61781,0.48 1.42996,0.48 0.89401,0 1.24576,-0.13553 1.24576,-0.48 z m 2.67612,-0.16583 c 0.60583,-0.56696 -0.12397,-0.89185 -1.23643,-0.55043 -1.48135,0.45464 -1.54981,1.33774 -0.0797,1.02797 0.572,-0.12052 1.16425,-0.33542 1.31612,-0.47754 z m -5.87612,-0.11785 c 0,-0.24833 -0.42267,-0.50571 -0.96,-0.58458 -0.90477,-0.13279 -1.28232,0.27927 -0.74666,0.81493 0.39708,0.39708 1.70666,0.22032 1.70666,-0.23035 z m -2.24,-0.31556 c 0,-0.24158 -0.72,-0.79556 -1.6,-1.23107 -1.79966,-0.89064 -2.01486,-0.75598 -0.72,0.45052 1.26064,1.17461 2.32,1.53103 2.32,0.78055 z m 10.37507,-1.21836 c 1.66985,-1.95085 1.41506,-2.47535 -0.41225,-0.84864 -0.85645,0.76243 -1.48904,1.56624 -1.40576,1.78624 0.24886,0.65742 0.61385,0.46919 1.81801,-0.9376 z m -2.48161,0.11195 c 4.06991,-2.07631 6.6067,-8.88721 5.57399,-14.96529 -0.20643,-1.21498 -0.79656,-3.721059 -1.31139,-5.569059 -1.50672,-5.40836 -1.98546,-8.69231 -2.03269,-13.94323 -0.0412,-4.57787 -0.0841,-4.88374 -0.84337,-6.0128 -1.82468,-2.71323 -5.56667,-4.15315 -8.88,-3.41701 -2.3225,0.516 -3.99248,1.35743 -4.84494,2.44116 -0.62376,0.79297 -0.66512,1.24499 -0.66017,7.21469 0.003,3.5028 -0.16243,8.27413 -0.36741,10.60296 -0.20498,2.32883 -0.38952,7.042229 -0.41009,10.474229 l -0.0374,6.24 1.21668,2.27632 c 1.48639,2.78091 2.80377,4.17736 4.33926,4.59971 0.64024,0.1761 1.66806,0.4606 2.28406,0.63222 1.63438,0.45534 4.49464,0.18055 5.97346,-0.5739 z M 466.97026,34.189188 c 0.30815,0 0.44,-0.43151 0.44,-1.44 0,-0.792 -0.11392,-1.44 -0.25317,-1.44 -0.3688,0 -2.62683,2.51933 -2.62683,2.93082 0,0.22042 0.36876,0.27543 1,0.14918 0.55,-0.11 1.198,-0.2 1.44,-0.2 z m -2.70327,-0.72 c 0.21958,-0.396 0.36865,-0.828 0.33126,-0.96 -0.0374,-0.132 0.11201,-0.204 0.33201,-0.16 0.22,0.044 0.364,-0.1 0.32,-0.32 -0.044,-0.22 0.10885,-0.4 0.33966,-0.4 0.65798,0 1.81729,-1.2356 1.6263,-1.73332 -0.39693,-1.03438 -4.85089,1.24021 -5.83545,2.9801 -0.52611,0.92972 -0.11246,1.30084 1.45824,1.30832 0.73833,0.004 1.14144,-0.19835 1.42798,-0.7151 z m -3.20481,-1.12 c 0.40926,-0.66 0.70544,-1.3187 0.65817,-1.46379 -0.0473,-0.14508 0.0555,-0.17636 0.22839,-0.0695 0.17288,0.10685 1.13272,-0.24245 2.13297,-0.77621 1.00026,-0.53377 2.08637,-0.97048 2.4136,-0.97048 0.32722,0 0.59495,-0.216 0.59495,-0.48 0,-0.65038 -2.11941,-0.63674 -4.49178,0.0289 -1.73871,0.48785 -4.76385,2.43421 -5.02471,3.23287 -0.10558,0.32324 1.8739,1.64066 2.53039,1.68406 0.11765,0.008 0.54876,-0.52585 0.95802,-1.18585 z m 23.7746,0.85819 c -0.11619,-0.188 -0.42017,-0.26165 -0.67551,-0.16367 -0.25925,0.0995 -0.37792,0.0385 -0.26874,-0.13818 0.10752,-0.17399 0.043,-0.31634 -0.14338,-0.31634 -0.18639,0 -0.33889,0.216 -0.33889,0.48 0,0.30162 0.30432,0.48 0.81889,0.48 0.49928,0 0.73643,-0.13341 0.60763,-0.34181 z m 2.71335,0.0456 c 0.3062,-0.0158 0.14581,-0.35412 -0.48,-1.01235 -0.98441,-1.03542 -2.69635,-2.08587 -2.70477,-1.65965 -0.003,0.13652 -0.12821,0.0536 -0.27892,-0.1842 -0.19553,-0.30855 -0.31408,-0.15953 -0.41384,0.52022 -0.1195,0.81422 0.014,1.03548 0.91892,1.52281 0.58231,0.31359 1.05874,0.69059 1.05874,0.83777 0,0.14718 0.324,0.2072 0.72,0.13339 0.396,-0.0738 0.92694,-0.14491 1.17987,-0.15799 z m 3.54013,-0.73174 c 1.32073,-0.36084 1.92,-0.64178 1.92,-0.90012 0,-0.41813 -2.80848,-1.99389 -3.1631,-1.77473 -0.16623,0.10274 -0.35324,0.0338 -0.41558,-0.15325 -0.12523,-0.37567 -4.665,-1.24877 -5.30132,-1.01956 -0.81223,0.29258 -0.35661,0.90512 1.23546,1.66099 0.89951,0.42706 1.94325,1.19277 2.31943,1.70158 0.6813,0.92152 1.42167,1.02699 3.40511,0.48509 z m -33.82373,-1.32135 c 0.0906,-0.23612 0.95546,-0.95415 1.92191,-1.59564 1.86174,-1.23576 4.67921,-2.13505 6.68905,-2.13505 1.55448,0 1.56143,-0.51309 0.0128,-0.94318 -3.09385,-0.8592 -8.10742,-0.17557 -10.6959,1.45847 -1.411,0.89072 -1.34735,1.34558 0.39324,2.81019 1.12086,0.94314 1.4427,1.02082 1.67893,0.40521 z m 39.03518,-1.2406 c 0.84556,-0.7305 0.86203,-0.79525 0.32,-1.25735 -2.66913,-2.27556 -7.18058,-2.99565 -12.33145,-1.96827 -0.5847,0.11663 -0.88,0.37687 -0.88,0.77553 0,0.50316 0.2474,0.6 1.53277,0.6 0.84302,0 2.39102,0.22209 3.44,0.49355 1.88131,0.48684 5.26723,2.27537 5.26723,2.78228 0,0.35551 1.56166,-0.48423 2.65145,-1.42574 z m 1.83331,-2.50158 c 0.53662,-1.29551 0.21561,-4.47596 -0.50496,-5.00285 -1.07109,-0.7832 -7.19737,-1.17296 -7.43077,-0.47275 -0.0607,0.18212 -0.29457,0.26045 -0.51969,0.17407 -0.96465,-0.37018 -6.90934,2.72827 -6.90934,3.60122 0,0.61201 0.55131,0.63869 3.4138,0.16523 2.39042,-0.39538 3.03547,-0.3882 5.48239,0.0611 2.03303,0.3733 3.11626,0.76068 4.0585,1.45136 1.64207,1.20367 1.91977,1.20628 2.41007,0.0226 z m -43.29351,0.0126 c 0.44671,-0.35139 1.83475,-0.94341 3.08452,-1.3156 1.8432,-0.54893 2.78712,-0.64336 4.99828,-0.50002 1.49927,0.0972 3.12195,0.274 3.60595,0.39291 0.65641,0.16126 0.88,0.0977 0.88,-0.25025 0,-0.45519 -2.63063,-2.08317 -3.75545,-2.32407 -0.3105,-0.0665 -1.28455,-0.34507 -2.16455,-0.61904 -1.6502,-0.51376 -7.05903,-0.69622 -7.71209,-0.26016 -1.04721,0.69924 -1.42133,3.15321 -0.71654,4.70005 0.4476,0.98237 0.72062,1.0094 1.77988,0.17618 z m 44.77528,-0.85165 c 0.70546,-1.20377 0.89905,-1.9887 1.0063,-4.08 0.22795,-4.4451 -1.27288,-8.57897 -4.63228,-12.7590499 -2.33076,-2.90017 -4.35844,-4.44233 -8.3592,-6.35765 -4.91656,-2.35375 -7.29511,-2.89882999 -12.70135,-2.91069999 -5.13057,-0.0113 -7.34965,0.51341999 -10.4,2.45898999 -0.968,0.61741 -1.88917,1.12624 -2.04704,1.13075 -0.58863,0.0168 -3.15039,2.37817 -4.81482,4.4382 -3.17261,3.9266799 -5.0305,8.4782499 -5.44112,13.3299899 l -0.18958,2.24 0.75614,-1.6 c 1.69125,-3.57869 5.48389,-5.98419 11.58434,-7.34741 6.64466,-1.48484 11.98283,-1.79598 18.8965,-1.10141 5.47981,0.55052 10.27426,2.39836 13.02641,5.02055 1.90924,1.81908 3.25487,6.19808 2.50389,8.14827 -0.50757,1.31807 -0.16936,1.06372 0.81181,-0.61053 z m -16.33651,-2.06264 c 2.30485,-2.54683 8.8611,-4.1564 13.00772,-3.19341 1.33253,0.30946 1.32918,0.26012 -0.10791,-1.58976 -0.48552,-0.62498 -1.57847,-1.51499 -2.42878,-1.97778 l -1.54602,-0.84145 -2.28331,1.01778 c -2.32371,1.03579 -3.14649,1.55138 -5.1979,3.25724 -1.37197,1.14085 -1.64374,1.4856 -1.43608,1.8216 0.0855,0.13839 -0.0409,0.17623 -0.28106,0.0841 -0.51369,-0.19712 -1.37537,1.22685 -1.05554,1.74434 0.31696,0.51285 0.6448,0.43325 1.32888,-0.32265 z m -14.92269,-0.26315 c 0.89915,-1.68008 -8.03541,-6.56567 -10.86892,-5.94333 -0.71078,0.15611 -3.83841,2.95618 -3.83841,3.4364 0,0.0573 0.9845,0.0485 2.18777,-0.0195 3.37239,-0.19056 6.27432,0.39039 9.01223,1.80419 2.85642,1.475 3.07982,1.521 3.50733,0.7222 z m 16.21308,-3.71951 c 1.73961,-1.33634 3.75043,-2.59466 4.55377,-2.84963 0.3772,-0.11972 0.68582,-0.36047 0.68582,-0.535 0,-0.17452 0.1307,-0.23654 0.29045,-0.13781 0.15974,0.0987 0.62774,0.0501 1.04,-0.10816 l 0.74955,-0.28766 -0.86861,-0.34071 c -0.47774,-0.18739 -1.68171,-0.57707 -2.67548,-0.86597 l -1.80687,-0.52527 -1.58733,1.55302 c -1.6906,1.65406 -4.74171,5.95492 -4.74171,6.68393 0,0.24051 0.24328,0.57343 0.54061,0.73983 0.43072,0.24104 0.74898,0.0297 1.56566,-1.03992 0.56377,-0.73836 1.57814,-1.76735 2.25414,-2.28664 z m -14.61593,1.19765 c -1.71513,-2.90693 -4.56272,-5.49524 -6.24942,-5.68039 -0.4528,-0.0497 -1.63651,0.18942 -2.63046,0.53139 -2.01903,0.69465 -2.80892,1.24718 -1.78296,1.24718 1.65707,0 6.99516,2.81371 8.71729,4.59488 0.94826,0.98076 1.17124,1.07387 1.84103,0.76869 l 0.76209,-0.34723 z m 9.93552,0.88373 c 0,-0.61536 3.14729,-5.00728 4.53336,-6.32611 0.75327,-0.71674 1.30142,-1.36317 1.21811,-1.43652 -0.0833,-0.0733 -1.0393,-0.22202 -2.12442,-0.3304 -1.9714,-0.1969 -1.97345,-0.19622 -2.59587,0.8587 -1.4875,2.52113 -2.84533,7.09999 -2.18608,7.37188 0.64057,0.26419 1.1549,0.20293 1.1549,-0.13755 z m -7.71381,-0.27788 c 0.3684,-0.23328 0.37995,-0.54562 0.0662,-1.79152 -0.43159,-1.71398 -2.00703,-4.98467 -2.64631,-5.49383 -0.48382,-0.38536 -4.74611,0.13764 -4.74611,0.58236 0,0.14239 0.41101,0.47143 0.91336,0.7312 1.1969,0.61894 3.95936,3.65668 4.65127,5.11478 0.55394,1.16733 0.95972,1.36474 1.76156,0.85701 z m 5.91519,-0.58767 c 0.0905,-0.308 0.26379,-1.136 0.38516,-1.84 0.12136,-0.704 0.69723,-2.252 1.27971,-3.44 l 1.05905,-2.16 h -2.57826 -2.57826 l 0.20104,1.07164 c 0.11057,0.58939 0.21012,2.30906 0.22122,3.82146 0.0168,2.28816 0.10991,2.77358 0.55458,2.89125 1.03096,0.27281 1.29264,0.21092 1.45576,-0.34435 z m -3.3542,0.0386 1.00718,-0.20143 -0.16834,-2.75857 c -0.27554,-4.51544 -0.27697,-4.51856 -2.07144,-4.51856 -0.84402,0 -1.99147,0.0914 -2.5499,0.20306 -1.00734,0.20147 -1.0106,0.20839 -0.41441,0.88 0.68295,0.76936 2.11232,4.00966 2.45303,5.56089 0.247,1.12459 0.26085,1.13122 1.74388,0.83461 z M 416.3835,73.949227 c 0.45025,-1.04315 0.91108,-3.58234 0.69024,-3.80319 -0.29925,-0.29925 -1.4629,0.7965 -2.04855,1.92904 -0.34351,0.66426 -0.55154,0.81087 -0.7333,0.51678 -0.17699,-0.28638 -0.7658,-0.36138 -1.94645,-0.24793 -1.49055,0.14322 -1.62105,0.11026 -1.09277,-0.27603 0.32995,-0.24127 1.2169,-0.43867 1.971,-0.43867 1.15795,0 1.52857,-0.17308 2.38431,-1.11346 0.55727,-0.61241 1.62911,-1.41162 2.38186,-1.77602 1.91345,-0.92628 2.32394,-1.47904 1.54791,-2.08441 -0.36532,-0.28497 -0.97424,-0.40855 -1.52749,-0.30999 -0.506,0.0901 -1.24639,0.16388 -1.6453,0.16388 -0.48512,0 -0.78536,0.23844 -0.90664,0.72 -0.21181,0.84104 -2.13308,3.54165 -2.35893,3.3158 -0.0846,-0.0846 0.2109,-0.63186 0.6566,-1.2162 0.4457,-0.58434 0.9612,-1.45917 1.14556,-1.94407 l 0.3352,-0.88164 -1.2605,0.64306 c -1.43773,0.73347 -1.73659,0.79327 -1.42218,0.28453 0.15833,-0.25618 -0.4284,-0.3218 -2.05524,-0.22987 -1.56467,0.0884 -2.1734,0.0254 -1.94617,-0.20148 0.18186,-0.18157 1.51122,-0.34695 2.95413,-0.3675 1.44291,-0.0205 3.12652,-0.20056 3.74136,-0.4 0.61484,-0.19945 1.59884,-0.36263 2.18667,-0.36263 0.58783,0 1.01471,-0.108 0.94862,-0.24 -3.31425,-6.61987 -3.41683,-7.50756 -1.73256,-14.99193 0.63766,-2.833569 1.15938,-5.369419 1.15938,-5.635239 0,-0.35154 -0.48886,-0.53375 -1.79338,-0.66838 -3.66968,-0.37875 -8.42949,-3.40314 -10.25305,-6.51482 -1.58748,-2.70883 -1.28432,-7.91449 0.70592,-12.12152 0.49879,-1.05435 1.78247,-2.71148 3.28002,-4.23423 5.15675,-5.24354 12.03432,-7.08469 18.68398,-5.00176 4.96934,1.5566 8.07988,3.75916 10.6272,7.52511 2.29832,3.39781 3.0397,8.14537 1.90405,12.19282 -0.42761,1.52398 -0.82084,2.13778 -2.11502,3.30136 -1.62721,1.46301 -4.85457,3.19956 -6.59221,3.54709 -1.6564,0.33128 -1.67472,1.44742 -0.13072,7.961499 0.55598,2.34566 0.84249,4.48405 0.85877,6.40965 0.0216,2.55407 -0.0777,3.08707 -0.85556,4.58953 -0.484,0.93494 -0.88,1.89155 -0.88,2.1258 0,0.23425 -0.36365,0.8581 -0.80813,1.38632 -0.73087,0.8686 -0.75381,0.97622 -0.24,1.12578 1.10314,0.32109 2.4987,0.29213 3.38897,-0.0703 1.28113,-0.52159 3.19016,-0.45368 3.918,0.13937 0.6124,0.49897 0.61213,0.50298 -0.0188,0.28369 -1.41927,-0.49326 -1.80147,-0.53283 -2.95619,-0.30606 l -1.20381,0.2364 1.01704,0.35992 c 0.55937,0.19796 1.12337,0.46792 1.25333,0.59992 0.12997,0.132 0.57977,0.24 0.99957,0.24 0.83429,0 3.28364,1.2752 3.2876,1.71161 0.001,0.14938 -0.46554,-0.003 -1.03754,-0.33826 -0.572,-0.33542 -1.29533,-0.7064 -1.6074,-0.8244 -0.49727,-0.18802 -0.52181,-0.12643 -0.19853,0.49826 0.30759,0.59434 0.20246,0.55661 -0.63259,-0.22708 l -1.00147,-0.93987 -0.005,1.57987 c -0.004,1.13803 -0.0917,1.44563 -0.3151,1.09987 -0.17061,-0.264 -0.31241,-1.00459 -0.3151,-1.64576 -0.006,-1.31408 -0.35344,-1.55424 -2.25166,-1.55424 h -1.2344 l 0.48916,1.43561 c 0.44772,1.314 1.71881,2.7659 2.74017,3.12998 0.2265,0.0807 0.32674,0.2396 0.22274,0.35302 -0.34294,0.37403 -2.36068,-1.231 -2.90194,-2.30835 -0.48025,-0.95591 -0.56346,-1.0012 -0.87027,-0.47362 -0.25685,0.44167 -0.34042,0.46678 -0.34408,0.10336 -0.003,-0.264 0.12692,-0.68824 0.28795,-0.94276 0.37987,-0.60043 -0.10522,-1.51147 -0.94709,-1.77867 -0.52698,-0.16726 -1.89423,0.40272 -3.14141,1.3096 -0.33693,0.24499 0.7914,1.50527 1.96172,2.19112 1.47086,0.86199 3.44391,2.74071 2.87831,2.74071 -0.1901,0 -0.42092,-0.19619 -0.51294,-0.43598 -0.092,-0.23978 -0.87722,-0.8728 -1.74491,-1.40669 l -1.57762,-0.97072 -0.56492,0.95634 c -0.31071,0.52599 -0.68052,1.339 -0.82182,1.8067 l -0.25689,0.85035 -0.0141,-0.8 c -0.008,-0.44 0.2484,-1.29279 0.5692,-1.89509 0.56815,-1.06665 0.56698,-1.12274 -0.045,-2.16 -0.50273,-0.85204 -0.832,-1.06491 -1.64728,-1.06491 -0.86727,0 -1.01403,0.11262 -0.98585,0.75649 0.0182,0.41607 0.34697,1.15549 0.73057,1.64316 0.3836,0.48766 0.69586,1.04724 0.69391,1.24351 -0.002,0.19626 -0.38082,-0.12192 -0.84192,-0.70708 l -0.83836,-1.06392 -0.60116,0.90392 c -0.33063,0.49716 -0.76856,1.47992 -0.97318,2.18392 -0.21613,0.74361 -0.42329,1.05849 -0.49435,0.75141 -0.0673,-0.29073 0.0898,-1.03632 0.34911,-1.65688 l 0.47142,-1.12827 -1.49401,0.45341 c -1.80297,0.54717 -1.87471,0.55304 -1.43941,0.11774 0.18842,-0.18843 1.04505,-0.52179 1.90361,-0.74081 1.20581,-0.30761 1.62678,-0.58521 1.85001,-1.21997 0.15895,-0.45196 0.20515,-1.04024 0.10267,-1.30729 -0.18903,-0.4926 -2.67058,-1.09631 -3.0298,-0.73709 -0.10768,0.10768 0.0437,0.69798 0.33639,1.31177 0.29269,0.61379 0.42565,1.11598 0.29546,1.11598 -0.13019,0 -0.42104,-0.41643 -0.64633,-0.9254 l -0.40962,-0.9254 -1.26849,0.61287 c -1.19982,0.57969 -1.2685,0.69099 -1.2685,2.05568 0,1.39214 -0.70535,3.66225 -1.1379,3.66225 -0.11581,0 -0.1018,-0.252 0.0311,-0.56 z m 10.8292,-6.46572 c 0.92945,-0.35337 3.39756,-2.50105 3.39756,-2.95645 0,-0.16923 -0.59475,0.20139 -1.32168,0.82362 -2.40522,2.05877 -5.98699,2.25775 -9.39207,0.52174 -1.17465,-0.59887 -1.18532,-0.59886 -0.64273,6.4e-4 0.48948,0.54087 2.30991,1.28476 4.15648,1.69848 1.17432,0.26311 2.98933,0.22106 3.80244,-0.0881 z m 0.35756,-1.57129 c 1.534,-0.69864 3.51687,-2.81583 4.34481,-4.63914 0.91208,-2.0086 0.79452,-5.1495 -0.38744,-10.35127 -1.00126,-4.406529 -1.00217,-4.419039 -0.65998,-9.124759 0.51538,-7.08752 -0.24258,-10.63528 -2.5903,-12.1244 -0.91622,-0.58114 -1.38519,-0.6333 -4.34473,-0.48325 -4.03352,0.20451 -5.92699,0.97613 -6.91268,2.81704 l -0.63033,1.17721 0.74568,2.31527 c 0.41013,1.2734 0.8966,3.77043 1.08106,5.54895 0.32727,3.15563 0.30621,3.36809 -0.87263,8.802059 -1.00364,4.62639 -1.18472,6.01162 -1.07047,8.18848 0.23337,4.44619 1.76706,6.75248 5.33934,8.02904 1.68086,0.60065 4.45679,0.52832 5.95767,-0.15523 z m -9.76,-22.596889 c 0,-0.8077 -0.008,-0.81192 -2.56,-1.32807 -1.55598,-0.31472 -3.50946,-1.72287 -4.16054,-2.99909 -1.17019,-2.29378 -0.66483,-4.14027 1.73726,-6.34761 3.03605,-2.7899 6.72077,-3.89379 12.97052,-3.88578 8.09452,0.0104 11.87486,1.51306 12.94775,5.1467 0.94952,3.21582 -0.78196,5.59151 -5.46143,7.49339 -1.02348,0.41597 -1.91677,0.92398 -1.98508,1.12891 -0.30604,0.91814 5.30351,-1.68087 7.20716,-3.3392 2.2836,-1.98932 3.10057,-5.78482 2.17112,-10.08661 -1.47004,-6.80375 -7.62683,-11.82442 -15.91436,-12.97767 -1.98898,-0.27677 -5.99058,0.33794 -8.30569,1.27589 -3.97521,1.61054 -8.09477,5.41716 -9.74851,9.008 -1.91251,4.15269 -2.00697,9.10155 -0.22287,11.67601 1.73604,2.5051 4.9131,4.64818 8.20489,5.53459 2.56907,0.69179 3.11978,0.63893 3.11978,-0.29946 z m -0.67653,-5.4461 c 0.0107,-1.25128 10e-4,-1.26205 -0.41535,-0.48 -0.68006,1.27631 -0.96198,3.87906 -0.45445,4.19546 0.46839,0.29199 0.84953,-1.33609 0.8698,-3.71546 z m -1.10258,-0.64 c 0.12092,-0.352 -0.0296,-0.208 -0.33441,0.32 -0.30484,0.528 -0.7365,1.56327 -0.95922,2.3006 -0.36155,1.19687 -0.3472,1.35196 0.13389,1.44646 0.43495,0.0854 0.57752,-0.23476 0.73937,-1.66061 0.11029,-0.97155 0.29946,-2.05445 0.42037,-2.40645 z m -0.34574,-0.72895 c 0.46908,-0.74308 0.71988,-1.35105 0.55731,-1.35105 -0.72139,0 -3.23246,3.82244 -3.23246,4.92058 0,1.1026 0.8173,0.63523 1.3035,-0.7454 0.28532,-0.81019 0.90256,-2.08105 1.37165,-2.82413 z m 17.19956,3.84895 c -0.1693,-0.308 -0.52978,-0.848 -0.80108,-1.2 -0.45579,-0.59137 -0.49405,-0.59585 -0.50345,-0.059 -0.015,0.85775 0.58335,1.81896 1.13234,1.81896 0.36107,0 0.40374,-0.13875 0.17219,-0.56 z m 1.40529,-0.37958 c 0,-0.53308 -1.47508,-2.50563 -2.0458,-2.73574 -0.81179,-0.32731 -0.73118,0.0764 0.34309,1.71847 0.99687,1.52375 1.70271,1.94544 1.70271,1.01727 z m 1.19661,-1.67729 c -0.62101,-1.05337 -2.17301,-2.55251 -3.22586,-3.11598 -1.11642,-0.59749 -0.89063,0.66471 0.27278,1.52485 0.52994,0.3918 1.34182,1.28401 1.80418,1.98269 0.66052,0.99811 0.93333,1.19342 1.27309,0.91145 0.36002,-0.2988 0.33923,-0.51695 -0.12419,-1.30301 z m -22.52186,0.22153 c 0.22182,-0.61343 0.98987,-1.8574 1.70679,-2.76437 l 1.30349,-1.64903 -1.35921,0.76392 c -1.58837,0.89271 -3.20582,2.62425 -3.20582,3.43195 0,0.54578 0.56674,1.33287 0.95972,1.33287 0.10544,0 0.37321,-0.5019 0.59503,-1.11534 z m 25.00525,-1.30247 c 0,-0.74669 -3.66504,-3.06137 -5.83089,-3.68252 -1.23965,-0.35553 -1.19478,0.45606 0.0538,0.97325 1.0872,0.45033 3.76823,3.063 4.04814,3.94492 0.17904,0.56411 0.2317,0.55718 0.95919,-0.12626 0.42337,-0.39773 0.76975,-0.89695 0.76975,-1.10939 z m -23.04685,-3.17864 c 1.45211,-0.75092 1.04349,-0.88684 -0.91636,-0.30483 -1.97265,0.58581 -2.91679,1.42159 -2.91679,2.58204 0,0.83883 0.003,0.83779 1.40341,-0.45286 0.77187,-0.71149 1.86525,-1.53245 2.42974,-1.82435 z m 23.68685,1.28079 c 0,-1.32092 -2.92972,-2.95 -6.32,-3.51425 -1.23802,-0.20604 -1.36,-0.16642 -1.36,0.44178 0,0.50371 0.20183,0.66813 0.82015,0.66813 1.02455,0 3.92879,1.4028 5.32603,2.57257 1.17752,0.98582 1.53382,0.94674 1.53382,-0.16823 z m -23.70001,-2.39895 c 1.51421,-0.40774 1.72093,-0.96539 0.35786,-0.96539 -0.56887,0 -1.29789,0.32811 -1.84,0.82812 -0.53589,0.49427 -0.68016,0.75943 -0.35786,0.65773 0.29699,-0.0937 1.12499,-0.32793 1.84,-0.52046 z m 22.58198,-0.43748 c -0.27103,-0.41364 -1.21198,-1.14352 -2.09099,-1.62194 -1.5074,-0.82042 -1.69799,-0.84913 -3.35459,-0.50522 -0.96601,0.20054 -1.75639,0.48164 -1.75639,0.62466 0,0.14302 0.9,0.31989 2,0.39304 1.26607,0.0842 2.64587,0.44039 3.76,0.97061 0.968,0.46068 1.79932,0.8496 1.84738,0.86427 0.0481,0.0147 -0.13437,-0.31177 -0.40541,-0.72542 z m -20.64197,-1.32791 c 0.43242,-0.52103 0.32899,-0.58616 -0.45382,-0.28576 -0.2784,0.10683 -0.50618,0.32283 -0.50618,0.48 0,0.44263 0.51852,0.33772 0.96,-0.19424 z m 14.10618,-1.12 c 0.1616,0 0.29382,-0.144 0.29382,-0.32 0,-0.176 -0.52163,-0.32 -1.15918,-0.32 -1.00927,0 -1.1061,0.064 -0.74873,0.49456 0.22575,0.27201 0.61516,0.41601 0.86535,0.32 0.2502,-0.096 0.58713,-0.17456 0.74874,-0.17456 z m 90.94183,42.889299 c -1.51429,-0.35978 -2.49457,-1.1063 -2.97464,-2.26528 -0.48899,-1.18053 -0.14518,-2.27238 4.42516,-14.05337 l 2.54076,-6.54934 -1.22055,-0.546459 c -1.69759,-0.76004 -3.84222,-2.81965 -5.5606,-5.34018 -2.74718,-4.02959 -3.60172,-8.24046 -2.45422,-12.09356 2.03324,-6.82724 8.56966,-10.96994 15.75755,-9.98694 4.24943,0.58115 9.83609,3.58172 12.67633,6.80841 3.49642,3.97214 4.22215,9.33228 2.01702,14.89742 -1.1937,3.01256 -1.9852,4.03492 -4.24788,5.48688 -2.37422,1.523529 -5.07897,2.253519 -8.54702,2.306759 l -3.02008,0.0464 -1.33337,5.28 c -1.73265,6.86105 -3.58111,12.6607 -4.50433,14.13251 -0.67295,1.07284 -1.9418,2.2346 -2.35335,2.15474 -0.0928,-0.018 -0.63319,-0.14309 -1.20078,-0.27795 z m 1.82442,-0.64525 c 0.3247,-0.17377 0.89274,-0.80522 1.26232,-1.40321 1.39909,-2.26377 5.97751,-18.36425 5.72566,-20.13485 -0.0717,-0.50401 -0.48279,-0.83818 -1.43696,-1.168039 -1.9001,-0.65688 -2.67195,-0.22097 -3.43404,1.939399 -0.33424,0.94746 -1.81393,4.79586 -3.28823,8.55201 -3.09947,7.89668 -3.576,9.65899 -2.93559,10.85635 0.70567,1.31939 2.85272,2.02952 4.10684,1.35834 z m 14.51009,-21.60252 c 3.36042,-0.875279 6.51995,-2.888009 7.4659,-4.756049 l 0.50917,-1.00548 -0.9188,0.84561 c -2.25906,2.07912 -5.77576,3.15439 -10.31647,3.15439 -3.25764,0 -5.25624,-0.51739 -8.71376,-2.2558 -3.59756,-1.80882 -7.53435,-5.99703 -8.99441,-9.56885 l -0.59491,-1.45535 0.2008,1.6 c 0.38367,3.05711 1.87526,6.06244 4.49551,9.05778 1.6641,1.90231 4.42046,3.49328 5.08977,2.9378 0.99067,-0.82219 4.15029,-0.1215 4.85877,1.077489 0.14074,0.2382 0.4719,0.51483 0.7359,0.61475 0.94965,0.3594 4.38208,0.22266 6.18253,-0.24629 z m -0.7769,-2.395149 c 3.16969,-0.36441 6.00733,-1.57914 7.79386,-3.33638 2.08771,-2.05347 2.32051,-2.76276 2.32051,-7.07 0,-3.52236 -0.0729,-3.99575 -0.88195,-5.72293 -2.25497,-4.81427 -9.34122,-9.20206 -15.65974,-9.69648 -3.24928,-0.25425 -6.28019,0.67355 -9.01278,2.75896 -3.94392,3.00982 -5.63782,6.96165 -4.56535,10.65082 1.4574,5.01328 6.87716,9.92992 12.60948,11.43894 0.75331,0.19831 1.29002,0.4894 1.1927,0.64687 -0.0973,0.15747 0.43833,0.34159 1.19035,0.40916 0.75201,0.0676 1.58329,0.14691 1.84729,0.17633 0.264,0.0294 1.68853,-0.0855 3.16563,-0.25529 z m 0.67437,-4.80638 c -0.352,-0.352 -0.64,-0.928 -0.64,-1.28 0,-0.82418 1.09582,-1.92 1.92,-1.92 0.79322,0 1.92,1.08499 1.92,1.8488 0,1.73432 -1.98058,2.57062 -3.2,1.3512 z m 1.94104,-0.0113 c 0.84739,-0.45351 0.83387,-2.09121 -0.021,-2.54874 -0.45472,-0.24336 -0.82528,-0.24336 -1.28,0 -0.8163,0.43687 -0.86803,2.07539 -0.08,2.53437 0.70259,0.40922 0.64439,0.40862 1.38104,0.0144 z m -0.95578,-0.70874 c -0.0139,-0.308 -0.20526,-0.56438 -0.42526,-0.56973 -0.22,-0.005 -0.1328,-0.16501 0.19377,-0.3548 0.45667,-0.26539 0.71264,-0.2262 1.10857,0.16973 0.47307,0.47307 0.4725,0.5148 -0.007,0.5148 -0.28705,0 -0.59454,0.18 -0.68331,0.4 -0.0964,0.23896 -0.17157,0.17454 -0.18667,-0.16 z m -8.98526,-0.24 c -0.352,-0.352 -0.64,-0.928 -0.64,-1.28 0,-0.79322 1.08499,-1.92 1.8488,-1.92 1.00443,0 1.9912,0.9359 1.9912,1.88855 0,1.75003 -1.95869,2.55276 -3.2,1.31145 z m 2.56787,-0.48947 c 0.31449,-0.37894 0.32282,-0.67255 0.0369,-1.30011 -0.30246,-0.66383 -0.55727,-0.7925 -1.40705,-0.71052 -0.80557,0.0777 -1.06125,0.26637 -1.143,0.84337 -0.0579,0.4088 -0.0264,0.9488 0.07,1.2 0.23309,0.60743 1.9308,0.58467 2.44322,-0.0328 z m -1.58261,-0.20386 c -0.0139,-0.29334 -0.17068,-0.58181 -0.34842,-0.64106 -0.17774,-0.0593 -0.0697,-0.25994 0.24,-0.44598 0.43305,-0.26012 0.69254,-0.20443 1.12316,0.24105 0.53395,0.55237 0.53147,0.57932 -0.0533,0.57932 -0.33734,0 -0.68597,0.18 -0.77474,0.4 -0.10065,0.24944 -0.17091,0.19926 -0.18667,-0.13333 z m -5.78526,-1.54667 c -0.77021,-0.77021 -0.80021,-1.22886 -0.14186,-2.1688 0.5488,-0.78352 2.00136,-0.9637 2.63786,-0.3272 0.6365,0.6365 0.45632,2.08906 -0.3272,2.63786 -0.93994,0.65835 -1.39858,0.62835 -2.1688,-0.14186 z m 2.3142,-0.83506 c 0.32661,-0.71683 0.29433,-0.89804 -0.22802,-1.28 -0.77282,-0.56509 -1.26958,-0.5633 -1.74229,0.006 -0.30487,0.36735 -0.1932,0.49103 0.60082,0.66543 0.53641,0.11782 0.97529,0.3432 0.97529,0.50086 0,0.16019 -0.37253,0.14502 -0.84438,-0.0344 -0.97993,-0.37256 -1.16829,-0.27698 -0.88892,0.45107 0.32631,0.85034 1.68944,0.65219 2.1275,-0.30925 z m 6.64498,0.0341 c -0.63319,-0.76295 -0.4768,-2.13749 0.31627,-2.77967 0.92996,-0.75304 1.63967,-0.73231 2.50421,0.0731 0.82667,0.77016 0.88624,1.49972 0.2022,2.47633 -0.58951,0.84164 -2.40075,0.97959 -3.02268,0.23021 z m 2.49682,-0.22301 c 0.2112,-0.2112 0.384,-0.78446 0.384,-1.2739 0,-0.68214 -0.1866,-0.93674 -0.79928,-1.09051 -1.57951,-0.39643 -2.45389,0.55486 -1.80965,1.96882 0.38669,0.84868 1.56274,1.05778 2.22493,0.39559 z m -1.136,-0.80183 c -1.08102,-0.20822 -0.86695,-0.64489 0.23674,-0.48291 0.5262,0.0772 0.8777,0.26829 0.78111,0.42458 -0.0966,0.15629 -0.20312,0.26455 -0.23674,0.24058 -0.0336,-0.024 -0.38511,-0.10598 -0.78111,-0.18225 z m -5.84,-0.73417 c -0.80002,-0.80002 -0.80551,-1.30328 -0.025,-2.2955 0.60662,-0.7712 0.60662,-0.78702 0,-1.16587 -0.69508,-0.43408 -0.83243,-1.95317 -0.23098,-2.55463 0.66089,-0.66088 2.11336,-0.45709 2.65713,0.37281 0.53947,0.82333 0.24251,2.25531 -0.52045,2.50963 -0.27529,0.0918 -0.18163,0.35261 0.29932,0.83356 0.385,0.385 0.7,0.916 0.7,1.18 0,0.62025 -1.13975,1.76 -1.76,1.76 -0.264,0 -0.768,-0.288 -1.12,-0.64 z m 2.06633,-0.29789 c 0.10126,-0.16384 0.0103,-0.40533 -0.20222,-0.53665 -0.21249,-0.13133 -0.44241,-0.0706 -0.51094,0.13503 -0.0854,0.25626 -0.28562,0.21278 -0.63668,-0.13828 -0.46944,-0.46944 -0.4673,-0.53714 0.0257,-0.81305 0.78538,-0.43952 0.68622,-1.01111 -0.10221,-0.58916 -0.61317,0.32816 -0.87612,1.5772 -0.42666,2.02667 0.31806,0.31806 1.64149,0.25767 1.853,-0.0846 z m 0.17367,-1.28322 c 0,-0.16562 -0.144,-0.39012 -0.32,-0.49889 -0.176,-0.10877 -0.32,0.0267 -0.32,0.30111 0,0.27439 0.144,0.49889 0.32,0.49889 0.176,0 0.32,-0.1355 0.32,-0.30111 z m -0.19432,-2.65889 c 0.74437,-1.18745 -1.14135,-2.44965 -2.04073,-1.36596 -0.32711,0.39414 -0.33784,0.68313 -0.0489,1.31729 0.42582,0.93457 1.51834,0.96002 2.08963,0.0487 z m -1.56568,-0.56 c -0.57146,-0.24557 -0.54779,-0.27743 0.22111,-0.29751 0.47362,-0.0124 0.95012,0.12151 1.05889,0.29751 0.23611,0.38203 -0.39097,0.38203 -1.28,0 z m 15.89139,2.88 c -1.22227,-4.10649 -5.40171,-8.03116 -10.7797,-10.12259 -1.90067,-0.73914 -2.73398,-0.87155 -5.61803,-0.89264 -3.33756,-0.0244 -3.424,-0.006 -6,1.27389 -2.5272,1.25569 -3.4812,1.42338 -1.78869,0.3144 2.01531,-1.32047 4.88123,-2.09306 7.76426,-2.09306 4.78616,0 9.1252,1.81154 12.92714,5.39705 2.30879,2.17737 4.22719,5.4179 4.03044,6.80818 -0.0841,0.59458 -0.19778,0.44915 -0.53542,-0.68523 z m -6.26853,0.13714 c -0.66813,-0.66813 -0.63586,-1.51758 0.0823,-2.16754 1.18876,-1.07581 2.6148,-0.46328 2.6148,1.12314 0,1.38985 -1.69525,2.0463 -2.69714,1.0444 z m 2.23479,-0.83276 c 0.15038,-0.47379 0.0505,-0.82015 -0.3133,-1.08615 -1.07701,-0.78753 -2.56894,0.3564 -1.75069,1.34233 0.57734,0.69565 1.81047,0.54259 2.06399,-0.25618 z m -1.61765,-0.26438 c -0.57147,-0.24557 -0.54779,-0.27743 0.22111,-0.29751 0.47362,-0.0124 0.95012,0.12151 1.05889,0.29751 0.23611,0.38203 -0.39097,0.38203 -1.28,0 z m -19.49714,0.77714 c -0.66813,-0.66813 -0.63586,-1.51758 0.0823,-2.16754 1.10067,-0.9961 2.9348,-0.34385 2.9348,1.04366 0,1.35048 -2.03319,2.10784 -3.01714,1.12388 z m 2.05714,-0.29714 c 0.3299,-0.3975 0.29538,-0.48084 -0.20082,-0.4849 -0.32955,-0.003 -0.81518,-0.15882 -1.07918,-0.34694 -0.36559,-0.26051 -0.2321,-0.29939 0.56,-0.1631 0.76552,0.13171 1.04,0.0601 1.04,-0.27149 0,-0.62261 -1.20974,-0.95024 -1.77536,-0.48082 -0.56954,0.47267 -0.61194,1.79448 -0.0646,2.01532 0.71834,0.28986 1.11502,0.2199 1.52,-0.26807 z m 1.34034,-3.05247 c -0.8162,-0.7604 -0.90022,-1.66193 -0.21844,-2.34371 1.31084,-1.31084 3.3581,-0.66419 3.3581,1.0607 0,1.8143 -1.786,2.54414 -3.13966,1.28301 z m 2.45059,-0.54753 c 0.33028,-0.6303 -0.0673,-2 -0.58062,-2 -0.54026,0 -0.37508,0.90213 0.22969,1.25437 0.53334,0.31064 0.53334,0.32663 0,0.3359 -0.308,0.005 -0.56,0.15373 -0.56,0.32973 0,0.176 -0.144,0.32 -0.32,0.32 -0.176,0 -0.32,-0.204 -0.32,-0.45333 0,-0.24934 -0.18,-0.52597 -0.4,-0.61474 -0.23896,-0.0964 -0.17454,-0.17157 0.16,-0.18667 0.53604,-0.0242 0.83258,-0.98526 0.304,-0.98526 -0.88475,0 -1.42307,2.02564 -0.624,2.34807 0.85854,0.34643 1.83103,0.18608 2.11093,-0.34807 z m 6.4723,-0.60315 c -0.73176,-0.93028 -0.76489,-1.0615 -0.4093,-1.62091 0.75906,-1.19412 3.3663,-0.97092 3.7031,0.31701 0.50099,1.9158 -2.02571,2.91602 -3.2938,1.3039 z m 2.23781,0.19189 c 1.239,-0.66309 0.43678,-2.38802 -1.01075,-2.1733 -1.11838,0.16589 -1.4993,1.05901 -0.78724,1.84583 0.6771,0.74819 0.92687,0.79368 1.79799,0.32747 z m -1.14104,-0.62874 c 0.10877,-0.176 -0.0627,-0.33137 -0.38111,-0.34526 -0.45042,-0.0196 -0.47236,-0.0658 -0.0989,-0.20798 0.264,-0.1005 0.58231,-0.34043 0.70736,-0.53318 0.1489,-0.22951 0.38917,-0.13012 0.69621,0.28798 0.41726,0.56822 0.40985,0.66236 -0.0674,0.85595 -0.7929,0.32164 -1.07866,0.30245 -0.8562,-0.0575 z M 381.17027,67.771017 c -1.28242,-0.37464 -3.04229,-2.13281 -3.94588,-3.94207 -1.10282,-2.20819 -1.42859,-4.9981 -1.05476,-9.03292 0.176,-1.89954 0.24864,-3.56916 0.16143,-3.71027 -0.0872,-0.14112 -0.54607,-0.25973 -1.01968,-0.2636 -3.50365,-0.0286 -7.37401,-4.812559 -7.6828,-9.496339 -0.23102,-3.50434 1.60784,-7.88123 4.23353,-10.07667 2.2259,-1.86118 6.86489,-2.9627 11.59181,-2.75247 3.00407,0.1336 3.53962,0.25502 5.47078,1.24031 5.08761,2.59571 7.59733,8.81337 5.36537,13.29233 -0.99057,1.98781 -3.21681,4.35067 -4.91575,5.2174 l -1.28139,0.65371 0.63054,2.164379 c 1.89188,6.49402 1.9457,8.44285 0.33035,11.96272 -1.03308,2.25111 -2.28321,3.53578 -4.36355,4.48411 -1.39714,0.63689 -2.06045,0.68577 -3.52,0.25938 z m 4.33735,-1.20718 c 0.78245,-0.49793 1.62887,-1.15629 1.88092,-1.46301 0.25425,-0.30938 -0.26413,-0.10858 -1.16432,0.451 -1.80273,1.12065 -3.67968,1.6563 -4.89395,1.39665 -0.62816,-0.13431 -0.6969,-0.0978 -0.32,0.16993 0.9224,0.65526 2.99853,0.39925 4.49735,-0.55457 z M 381.54,66.269187 c -0.0814,-0.132 0.52208,-0.25194 1.34111,-0.26655 2.63224,-0.0469 5.23626,-1.88327 6.30769,-4.44816 0.85231,-2.04034 0.66038,-4.79144 -0.66625,-9.54973 -1.57234,-5.639589 -1.6251,-5.761219 -2.80585,-6.468049 -2.18124,-1.30577 -7.55586,-0.39841 -8.54075,1.44187 -0.16691,0.31187 -0.34447,3.717839 -0.39458,7.568829 -0.0863,6.62866 -0.0538,7.08247 0.60822,8.51573 0.50218,1.08714 1.12876,1.78628 2.22265,2.48 1.47482,0.9353 2.23295,1.22084 1.92776,0.72606 z m -5.00973,-16.37457 c 0,-0.419269 -0.29767,-0.679949 -0.93667,-0.820299 -1.12765,-0.24768 -2.52227,-1.57041 -2.79298,-2.64901 -0.32927,-1.31192 0.6465,-2.84329 2.35943,-3.7029 3.26335,-1.63766 9.20115,-2.55776 11.85442,-1.83692 1.70263,0.46258 3.48566,1.99377 3.75624,3.22572 0.2714,1.23567 -0.37345,2.51436 -1.72777,3.42604 -1.3722,0.92371 -0.89228,0.96088 0.60732,0.047 2.11836,-1.29092 4.27288,-4.15779 4.81126,-6.40199 0.71442,-2.97804 -0.46867,-6.36883 -3.20651,-9.18999 -1.66064,-1.71117 -3.6117,-2.555 -6.88123,-2.97611 -2.97293,-0.38291 -7.43445,0.22392 -10.11061,1.37516 -2.94699,1.26777 -5.38008,4.81327 -6.09731,8.88503 -0.89936,5.10577 3.18257,10.965759 7.80441,11.203949 0.34896,0.018 0.56,-0.20274 0.56,-0.58571 z m -0.0873,-1.924729 c -0.0891,-0.34061 0.0528,-0.92592 0.31532,-1.30069 0.26249,-0.37477 0.42658,-0.72285 0.36463,-0.77351 -0.062,-0.0507 -0.40064,-0.25297 -0.75264,-0.44957 -0.636,-0.35523 -0.6359,-0.35753 0.016,-0.3672 0.3608,-0.005 0.79944,0.13372 0.97476,0.30904 0.21168,0.21168 0.73964,0.10419 1.57166,-0.32 0.6891,-0.35132 1.43845,-0.63877 1.66524,-0.63877 0.22678,0 0.41454,-0.252 0.41723,-0.56 0.003,-0.35659 0.0903,-0.42767 0.24,-0.1957 0.12931,0.20036 0.94511,0.45993 1.81288,0.57682 0.86778,0.11689 1.67946,0.27537 1.80374,0.35218 0.12428,0.0768 0.40392,-0.0748 0.62141,-0.33682 0.21749,-0.26206 0.77381,-0.47071 1.23626,-0.46367 l 0.84081,0.0128 -0.93351,0.50545 -0.93351,0.50544 0.77351,0.59463 c 0.42543,0.32705 1.01702,0.59783 1.31463,0.60174 0.29761,0.004 0.63011,0.15112 0.73888,0.32712 0.10878,0.176 -0.0267,0.32 -0.30111,0.32 -0.27439,0 -0.49889,0.144 -0.49889,0.32 0,0.176 0.18396,0.32 0.4088,0.32 0.83613,0 1.81215,-1.01299 2.01431,-2.09061 0.61218,-3.2632 -3.88174,-4.8181 -10.12776,-3.50421 -5.50733,1.15851 -7.80837,3.22334 -6.1811,5.5466 0.87407,1.24791 2.88271,1.79592 2.59845,0.70892 z m 192.88729,16.394079 c -0.352,-0.0864 -1.00285,-0.49819 -1.44635,-0.9152 -0.55579,-0.5226 -1.02861,-0.70006 -1.5217,-0.57111 -0.39345,0.10289 -0.91777,0.0191 -1.16517,-0.18624 -0.31909,-0.26482 -0.51212,-0.27247 -0.66424,-0.0263 -0.11795,0.19083 -0.74276,0.33843 -1.38849,0.328 -0.64573,-0.0104 -1.625,0.0703 -2.17616,0.17933 -0.5885,0.11645 -1.09067,0.055 -1.21668,-0.14891 -0.14759,-0.23881 -0.44565,-0.19581 -0.9547,0.13774 -0.55571,0.36411 -0.9474,0.40614 -1.57199,0.16867 -0.56656,-0.2154 -0.89859,-0.20831 -1.04109,0.0222 -0.11507,0.18619 -0.6594,0.27246 -1.20963,0.1917 -0.57897,-0.085 -1.30443,0.0524 -1.7221,0.32605 -0.64217,0.42076 -0.80986,0.41511 -1.5217,-0.0513 -1.63572,-1.07176 -0.64317,-3.2835 1.32983,-2.96333 0.58214,0.0945 1.14158,0.0373 1.24319,-0.12716 0.25294,-0.40926 1.5407,-0.37721 1.96686,0.049 0.25051,0.25051 0.40807,0.25051 0.56289,0 0.2736,-0.4427 1.54523,-0.45188 1.98279,-0.0143 0.23142,0.23142 0.459,0.18242 0.74319,-0.16 0.45799,-0.55185 1.78777,-0.66459 2.08905,-0.17712 0.1199,0.19401 0.49888,0.11772 0.97945,-0.19717 0.43114,-0.28249 1.08612,-0.43458 1.45552,-0.33798 0.36941,0.0966 1.02106,0.0164 1.44812,-0.17814 0.57713,-0.26296 0.87282,-0.25743 1.15179,0.0215 0.52416,0.52416 0.81452,0.46882 1.02535,-0.19544 0.0996,-0.31392 0.62346,-0.83204 1.16407,-1.15139 1.78608,-1.05507 4.10081,-0.006 4.62206,2.09503 0.21437,0.86401 -0.49189,2.81935 -1.23364,3.41545 -0.4971,0.3995 -2.1385,0.66076 -2.93052,0.46645 z m 2.42773,-0.82495 c 2.18002,-1.67377 1.22939,-5.02983 -1.42474,-5.02983 -2.25266,0 -3.60147,3.06623 -2.06721,4.69938 0.77563,0.82562 2.61971,1.00013 3.49195,0.33045 z m -2.90773,-2.48943 c 0,-0.22278 0.52291,-0.26372 1.52,-0.119 2.06649,0.29992 2.11262,0.4586 0.13333,0.4586 -0.95252,0 -1.65333,-0.14395 -1.65333,-0.3396 z m -15.33276,1.55287 c 0.27308,-1.02766 -0.32261,-1.68578 -1.25733,-1.38911 -1.2792,0.40601 -0.95638,2.54741 0.35497,2.35464 0.41761,-0.0614 0.75923,-0.42694 0.90236,-0.96553 z m 2.46876,0.32273 c 0.53436,-0.53436 0.47915,-1.37867 -0.12282,-1.87826 -0.99759,-0.82792 -2.24768,0.77675 -1.40042,1.79763 0.46893,0.56504 1.01019,0.59368 1.52324,0.0806 z m 2.87944,-0.764 c 0.18899,-1.32274 -1.59874,-1.79457 -1.93182,-0.50986 -0.24202,0.93346 0.103,1.37855 0.98908,1.27596 0.57482,-0.0665 0.87799,-0.31292 0.94274,-0.7661 z m 2.43839,0.63377 c 0.77074,-0.29576 0.65882,-1.95419 -0.14919,-2.21064 -1.22048,-0.38737 -2.11062,1.11089 -1.20064,2.02087 0.43588,0.43588 0.63538,0.46393 1.34983,0.18977 z m 3.0118,-1.21104 c 0.0584,-0.51132 -0.0771,-1.0382 -0.30276,-1.17768 -0.62399,-0.38564 -1.56287,0.2757 -1.56287,1.10088 0,0.93202 0.28419,1.21333 1.10683,1.09557 0.45424,-0.065 0.68534,-0.37529 0.7588,-1.01877 z m 2.55464,-0.27473 c -0.0836,-0.86758 -0.23217,-1.04 -0.89589,-1.04 -0.5131,0 -0.83519,0.20549 -0.90706,0.57869 -0.18571,0.96429 0.19807,1.50131 1.07291,1.50131 0.74401,0 0.81989,-0.10811 0.73004,-1.04 z m 2.17003,-4.24878 c -0.51134,-0.26666 -1.11875,-0.73377 -1.34982,-1.03802 -0.25906,-0.34111 -0.42403,-0.39984 -0.4303,-0.1532 -0.0119,0.46681 -1.23706,0.52497 -1.92287,0.0913 -0.32457,-0.20524 -0.65549,-0.13348 -1.05603,0.22901 -0.46925,0.42466 -0.75973,0.46133 -1.48518,0.18751 -0.58359,-0.22028 -1.09427,-0.23271 -1.44715,-0.0352 -0.29992,0.16785 -0.88663,0.21951 -1.30379,0.11481 -0.41717,-0.1047 -1.13741,-0.0177 -1.60053,0.19329 -0.65672,0.29923 -0.97932,0.29794 -1.46571,-0.006 -0.42931,-0.26811 -0.80703,-0.29134 -1.21208,-0.0746 -0.41463,0.2219 -0.76222,0.18784 -1.17681,-0.11532 -0.42494,-0.31072 -0.73656,-0.33769 -1.12182,-0.0971 -0.91797,0.57329 -1.63142,0.0445 -1.51865,-1.12566 l 0.10044,-1.0422 2.56,-0.0794 c 3.17111,-0.0983 4.23557,-0.20428 5.36416,-0.53387 0.59299,-0.17318 1.04888,-0.12149 1.38438,0.15695 0.40648,0.33735 0.5478,0.3382 0.754,0.005 0.13957,-0.22583 0.8126,-0.45535 1.49561,-0.51005 0.68302,-0.0547 1.53991,-0.19468 1.9042,-0.31108 0.42178,-0.13475 0.8123,-0.0309 1.07516,0.28578 0.36294,0.43732 0.49683,0.37236 1.10841,-0.53775 1.29551,-1.92789 4.18812,-2.00754 5.32281,-0.14656 1.17106,1.92063 0.69933,3.80822 -1.14421,4.5785 -1.36075,0.56856 -1.68302,0.56448 -2.83422,-0.0359 z m 3.30365,-0.71122 c 0.7746,-0.63338 0.98241,-2.41094 0.40746,-3.48524 -0.56591,-1.05743 -2.09636,-1.55734 -3.27416,-1.06948 -2.04273,0.84613 -2.46956,2.68164 -0.97186,4.17934 1.09696,1.09697 2.7575,1.25936 3.83856,0.37538 z m -1.63056,-1.28 c -0.12791,-0.4526 -0.45228,-0.72 -0.87343,-0.72 -0.36848,0 -0.66996,-0.144 -0.66996,-0.32 0,-0.176 0.288,-0.32 0.64,-0.32 0.42666,0 0.64,-0.21333 0.64,-0.64 0,-0.352 0.144,-0.64 0.32,-0.64 0.176,0 0.32,0.27121 0.32,0.60268 0,0.34116 0.31242,0.70593 0.72,0.84062 l 0.72,0.23795 -0.70032,0.13905 c -0.41681,0.0828 -0.74334,0.42258 -0.80656,0.83938 l -0.10624,0.70032 z m -12.31437,1.05333 c 0.81269,-0.6158 0.42821,-1.77333 -0.58902,-1.77333 -0.89295,0 -1.36924,1.0741 -0.78725,1.77536 0.4706,0.56705 0.62555,0.56681 1.37627,-0.002 z m -4.69522,-1.26852 c -0.10654,-0.27764 -0.40453,-0.50481 -0.66219,-0.50481 -0.64992,0 -1.01809,1.28695 -0.46585,1.62838 0.5704,0.35266 1.38368,-0.45739 1.12804,-1.12357 z m 2.29401,0.64986 c 0.13016,-0.67585 -0.47379,-1.17834 -1.11879,-0.93082 -0.45391,0.17417 -0.58286,1.11564 -0.20462,1.49388 0.39697,0.39697 1.20471,0.0533 1.32341,-0.56306 z m 5.10819,0.38133 c 0.57624,-0.57624 0.46277,-1.47132 -0.23378,-1.8441 -1.18188,-0.63253 -2.22038,1.20791 -1.06222,1.88247 0.72699,0.42343 0.83747,0.42016 1.296,-0.0384 z m 3.25963,-0.50726 c -0.0162,-0.8471 -0.47357,-1.66874 -0.92895,-1.66874 -1.22046,0 -1.77856,1.62412 -0.75494,2.19697 0.55094,0.30832 1.69303,-0.0499 1.68389,-0.52823 z m 2.56437,-0.50956 c 0,-1.411 -1.92767,-2.06464 -2.18275,-0.74013 -0.15307,0.79484 0.51587,1.50095 1.42193,1.50095 0.58776,0 0.76082,-0.17306 0.76082,-0.76082 z m -67.43999,-4.25111 c -0.57358,-0.23144 -0.49415,-1.603469 0.10617,-1.833829 0.8126,-0.31183 1.04995,-0.23416 1.42478,0.46622 0.56633,1.058189 -0.32485,1.854279 -1.53095,1.367609 z m 1.2,-0.908069 c 0,-0.26666 -0.28444,-0.48 -0.64,-0.48 -0.35555,0 -0.64,0.21334 -0.64,0.48 0,0.266669 0.28445,0.479999 0.64,0.479999 0.35556,0 0.64,-0.21333 0.64,-0.479999 z m 5.88465,-4.77672 c -0.38215,-0.99587 0.0178,-1.94123 0.86274,-2.03946 1.05492,-0.12263 1.70598,0.64119 1.44224,1.69203 -0.15969,0.63623 -0.40312,0.80415 -1.16578,0.80415 -0.5398,0 -1.04105,-0.20095 -1.1392,-0.45672 z m 1.80867,-0.35934 c 0.33826,-0.40758 0.32684,-0.58091 -0.064,-0.97176 -0.57988,-0.57987 -1.54932,-0.27406 -1.54932,0.48872 0,1.05762 0.91028,1.33016 1.61332,0.48304 z m -10.25332,-0.62394 c 0,-0.69275 0.12938,-0.82614 0.72,-0.74225 0.47258,0.0671 0.72,0.32218 0.72,0.74225 0,0.42008 -0.24742,0.67514 -0.72,0.74226 -0.59062,0.0839 -0.72,-0.0495 -0.72,-0.74226 z m 0.96,0 c 0,-0.264 -0.144,-0.48 -0.32,-0.48 -0.176,0 -0.32,0.216 -0.32,0.48 0,0.264 0.144,0.48 0.32,0.48 0.176,0 0.32,-0.216 0.32,-0.48 z m -7.78666,-1.65333 c -0.11734,-0.11734 -0.21334,-0.54934 -0.21334,-0.96 0,-0.85037 0.9594,-1.03854 1.56634,-0.30723 0.71634,0.86314 -0.56086,2.05937 -1.353,1.26723 z m 1.06666,-0.56778 c 0,-0.25362 -0.13405,-0.54396 -0.29789,-0.64522 -0.38044,-0.23513 -0.76307,0.36408 -0.50211,0.78633 0.29426,0.47612 0.8,0.38691 0.8,-0.14111 z m 3.63415,-2.58296 c -0.24222,-0.6312 0.43874,-1.43593 1.21507,-1.43593 0.77224,0 1.10564,0.81964 0.5874,1.44407 -0.51192,0.61682 -1.56448,0.61206 -1.80247,-0.008 z m 1.48584,-0.5026 c 0,-0.77985 -0.74776,-0.66962 -0.90346,0.13319 -0.0612,0.31576 0.102,0.53348 0.4,0.53348 0.29684,0 0.50346,-0.2736 0.50346,-0.66667 z m 5.44719,-0.44468 c -0.6032,-0.72682 -0.25893,-1.59734 0.67468,-1.70596 0.83456,-0.0971 1.44681,0.62079 1.06136,1.24447 -0.41593,0.67298 -1.35364,0.92225 -1.73604,0.46149 z m 1.13005,-0.51653 c 0.32977,-0.53358 -0.4119,-1.14544 -0.85335,-0.704 -0.36925,0.36925 -0.13815,1.05188 0.35612,1.05188 0.15523,0 0.37898,-0.15655 0.49723,-0.34788 z m -6.78977,-3.67363 c -0.26671,-0.69503 0.41038,-1.34864 0.89503,-0.864 0.40961,0.40961 0.15586,1.36551 -0.36249,1.36551 -0.18705,0 -0.4267,-0.22568 -0.53254,-0.50151 z m 7.69543,-0.5998 c -0.37561,-0.97885 0.0203,-1.61869 1.0015,-1.61869 0.76375,0 0.97729,0.15335 1.06361,0.76381 0.16471,1.16492 -1.65678,1.91896 -2.06511,0.85488 z m 1.44374,-0.15129 c 0.53726,-0.3402 0.23961,-1.3074 -0.40235,-1.3074 -0.50828,0 -0.94512,0.85796 -0.66643,1.30888 0.2237,0.36196 0.49539,0.36158 1.06878,-0.002 z"
     id="path4546"
     inkscape:connector-curvature="0" />
  <path
     style="fill:none;stroke:#000000;stroke-width:1px;stroke-linecap:butt;stroke-linejoin:miter;stroke-opacity:1"
     d="M 588.52003,68.129157 C 839.60251,66.804183 839.60251,66.804183 839.60251,66.804183"
     id="path4673"
     inkscape:connector-curvature="0" />
  <path
     style="fill:none;stroke:#000000;stroke-width:1px;stroke-linecap:butt;stroke-linejoin:miter;stroke-opacity:1"
     d="M 0.00263849,68.129157 C 251.08512,66.804183 251.08512,66.804183 251.08512,66.804183"
     id="path4673-0"
     inkscape:connector-curvature="0" />
</svg>
