<?xml version="1.0" encoding="UTF-8" standalone="no"?>
<!-- Created with Inkscape (http://www.inkscape.org/) -->

<svg
   xmlns:dc="http://purl.org/dc/elements/1.1/"
   xmlns:cc="http://creativecommons.org/ns#"
   xmlns:rdf="http://www.w3.org/1999/02/22-rdf-syntax-ns#"
   xmlns:svg="http://www.w3.org/2000/svg"
   xmlns="http://www.w3.org/2000/svg"
   xmlns:sodipodi="http://sodipodi.sourceforge.net/DTD/sodipodi-0.dtd"
   xmlns:inkscape="http://www.inkscape.org/namespaces/inkscape"
   version="1.1"
   id="svg815"
   width="450"
   height="99.998718"
   viewBox="0 0 450.00002 99.998711"
   sodipodi:docname="myc.svg"
   inkscape:version="0.92.4 (5da689c313, 2019-01-14)">
  <metadata
     id="metadata821">
    <rdf:RDF>
      <cc:Work
         rdf:about="">
        <dc:format>image/svg+xml</dc:format>
        <dc:type
           rdf:resource="http://purl.org/dc/dcmitype/StillImage" />
        <dc:title></dc:title>
      </cc:Work>
    </rdf:RDF>
  </metadata>
  <defs
     id="defs819" />
  <sodipodi:namedview
     pagecolor="#ffffff"
     bordercolor="#666666"
     borderopacity="1"
     objecttolerance="10"
     gridtolerance="10"
     guidetolerance="10"
     inkscape:pageopacity="0"
     inkscape:pageshadow="2"
     inkscape:window-width="1920"
     inkscape:window-height="1017"
     id="namedview817"
     showgrid="false"
     inkscape:zoom="2.6038893"
     inkscape:cx="197.18572"
     inkscape:cy="-36.778726"
     inkscape:window-x="-8"
     inkscape:window-y="-8"
     inkscape:window-maximized="1"
     inkscape:current-layer="svg815" />
  <path
     style="fill:#000000;stroke:#000000;stroke-width:0.69611102;stroke-miterlimit:4;stroke-dasharray:none;stroke-opacity:1"
     d="m 219.87542,0.10564626 c 0.0561,5.95100004 -1.29131,11.81249974 -0.52618,17.65939974 -1.06757,1.6815 -1.86728,-5.0651 -1.71648,-6.9449 -0.0946,-1.9458997 0.36725,-10.35979974 -0.53069,-4.0458997 0.0327,4.2718997 -0.43544,8.8208997 1.6992,12.6887997 0.95423,2.9718 -0.78215,6.5894 -1.53602,8.9319 -1.03091,-4.5429 0.57204,-9.3882 -1.18945,-13.7082 -2.44119,-3.846 -0.33253,-8.7227997 -0.7297,-12.1112997 -1.19264,4.2077 -1.7974,8.3624997 0.25099,12.4560997 0.92573,2.1638 1.03228,8.9581 0.41594,8.4298 -2.7742,-3.6188 -4.39556,-8.0603 -5.48388,-12.5162 -0.7358,-1.6340997 -1.10566,-6.3215997 -2.47243,-6.2799997 2.05513,4.3707 1.9911,9.5327997 4.59358,13.6521997 0.75781,2.4189 -4.74187,-4.3374 -1.71026,-0.092 2.11815,2.0095 6.81295,6.891 4.9949,8.6084 -5.15923,-3.1191 3.77025,2.1204 -0.34095,3.9666 -1.42288,5.0096 -1.24424,-4.25 -2.58413,-5.6846 -3.18891,-4.0377 -4.94432,-8.7141 -5.77435,-13.8189 -1.88113,-1.2007 -2.88183,-6.2640997 -4.26228,-6.2249997 2.5075,4.4071 4.82381,8.6682997 5.65641,13.7837997 -1.62701,-0.1157 -3.37979,-7.3605 -5.66243,-9.7396997 -0.92072,-1.9461 -4.00977,-3.9573 -1.24984,-0.8823 3.53773,3.9231997 3.90231,9.9272997 8.23753,13.1017997 1.99657,1.7996 6.03755,10.9764 0.87911,6.59 -0.97902,-0.1788 -0.38217,-5.3421 -1.64764,-4.209 1.41915,2.9291 0.21917,3.9075 -1.86626,1.3432 -1.05948,-5.3984 -3.28667,-10.7192 -7.05884,-14.7262 -3.75599,-4.2771997 3.96322,6.4615 2.26626,3.7619 1.96464,3.0926 3.57862,7.0692 4.00975,10.4314 -3.30196,-1.8383 -3.07466,-6.6827 -4.03394,-7.3309 2.00634,6.0253 -3.5072,-1.3293 -5.05086,-2.7676 -2.68021,-2.1468 4.1589,4.6251 3.13815,4.0631 1.96044,2.5014 7.91482,7.5563 5.31636,9.3272 -5.07535,-4.3423 -8.2928,-10.3229 -12.27138,-15.5826 -4.94942,-3.5315997 5.85854,6.5018 2.63332,4.5536 1.04223,2.0159 5.73557,7.2121 1.09888,4.1347 -1.71278,-1.389 -4.71415,-5.2109 -2.05549,-1.1829 4.28529,2.8293 8.22382,5.7613 11.66988,9.9659 3.09149,2.6316 1.19489,5.0225 -2.18683,3.5964 -1.54946,-6.5081 -7.49626,-9.2432 -11.80263,-13.5073 -0.80775,-1.4133 -5.37273,-6.5969 -2.30558,-2.1717 2.6205,4.3167 7.2473,6.5616 10.67499,9.9885 1.72044,2.271 2.72903,5.0148 -0.57634,2.1636 -2.00787,-3.5319 -2.40166,-1.3728 -0.12218,0.611 2.09108,0.7145 5.3895,4.0006 1.13093,2.6257 -3.7071,-2.1948 -7.858,-4.7831 -11.17234,-7.8887 -1.31624,-1.1971 -7.27636,-6.2317 -3.25435,-2.0482 1.77773,1.3429 5.81036,4.4886 1.1826,3.1319 -4.2777,-0.032 6.7154,1.2261 4.32551,1.6167 4.33606,2.1956 7.47762,5.6176 10.14546,9.6454 -2.5962,1.6364 -5.08018,-6.9404 -3.35472,-1.2904 0.5922,1.3301 -5.48257,-0.7873 -4.71562,-3.3461 -0.80707,-2.0814 -7.93715,-5.7007 -2.9549,-2.0779 3.2859,1.4606 3.43433,5.2679 -0.64575,2.9836 -0.64525,-1.3285 -4.832,-0.5197 -5.11689,-4.3404 -1.48949,-2.3424 -3.2054,-2.6046 -0.70649,-0.087 2.88079,4.853 -4.3541,-0.9166 -6.2574,-1.7374 -4.45625,-1.9973 6.92015,4.7701 4.06863,3.1238 4.26227,3.0328 10.55374,3.4293 14.26167,6.2238 -3.87822,4.0617 -8.73624,1.6629 -12.55824,-1.0111 -2.68649,-0.5134 -6.83177,-3.5629 -8.24475,-2.8921 3.90703,2.026 8.22451,3.1261 11.9744,5.5695 5.75733,2.4652 -3.3607,0.9659 -5.3517,-0.3207 -2.35245,-1.2166 -5.58119,-1.835 -1.44933,0.052 5.04063,3.2245 11.18323,0.4565 15.72094,4.4994 4.77201,0.5842 -2.06221,4.3779 -3.76522,1.4559 -5.07793,-1.3422 -10.78534,-4.021 -15.66018,-3.6711 3.34382,0.3579 9.35434,2.394 10.92102,3.0475 -3.24437,1.3969 -8.64779,-0.3371 -10.8141,1.039 4.00249,-0.2948 8.18974,0.808 11.99829,-0.9109 2.79875,0.1404 8.49911,3.0206 2.5189,2.8149 -3.18766,1.1427 -9.10286,-0.6354 -10.76144,-0.059 4.82488,1.4624 10.09756,1.1253 14.85901,-0.2531 2.00227,0.8073 9.30087,2.8571 3.60566,4.1758 -2.8084,2.6551 -5.67957,-0.3623 -7.29365,-1.5848 1.18923,2.1375 4.31965,3.4761 0.0959,3.2671 -0.69571,-1.9887 -11.17914,-2.9989 -8.14374,-2.5223 1.40621,0.656 10.91917,2.8196 4.9601,2.6321 -3.36914,-0.5229 -10.35924,-3.6263 -11.79822,-1.1037 5.73114,-1.5187 11.10653,3.3557 16.96176,1.4499 2.26426,-0.5781 3.37386,-0.9477 2.52507,1.2892 0.46029,-2.1622 4.40591,-3.7277 2.48342,-0.4724 -2.98199,2.6093 3.8948,-1.9609 3.92204,1.4854 -3.37591,2.5467 -6.97923,3.501 -10.40206,0.818 -4.95677,-0.7672 -9.84201,-2.7233 -14.93808,-1.6734 -5.53628,1.7608 2.96759,-0.244 4.62303,0.3936 2.2524,0.3523 6.33214,0.5093 2.02323,1.8586 -2.27039,0.3551 -5.02973,2.3484 -0.97532,0.9401 3.65976,-2.4442 8.1911,-1.6576 11.86014,0.3441 -2.37084,1.4982 -9.72952,-0.4733 -13.49419,2.4033 -1.94953,0.9581 -9.76656,3.6777 -3.45692,2.0152 3.77616,-1.5041 7.48515,-3.6796 11.71166,-3.3005 0.26557,2.455 -6.15627,5.5016 -9.09228,7.0568 -5.49765,2.4186 2.80571,-0.035 3.91951,-1.374 4.20477,-2.0933 6.26773,-7.1436 11.52285,-5.8388 3.20889,-1.25 4.80489,-1.3606 1.85554,1.5526 -3.45779,2.5532 -8.30239,2.0478 -11.78431,4.734 -1.70294,1.8754 -5.01566,3.0321 -5.80318,3.6211 4.69719,-0.5886 7.50459,-5.3036 12.39099,-5.6615 5.27079,0.3509 6.60435,-5.2913 10.36756,-7.2963 2.80287,-0.6853 -0.39586,1.6933 -0.52693,1.2255 3.74808,1.9825 -4.79396,3.8761 -5.70301,6.3132 -4.10558,3.0548 -9.36844,4.4062 -14.06907,6.1965 -1.80064,0.663 -5.04419,3.8032 -1.13171,1.3456 4.85018,-2.4078 10.57111,-3.6176 15.16608,-6.7002 2.83302,-2.9983 6.72643,-4.6138 10.30674,-6.4701 3.87577,-1.1573 2.28794,0.1323 -0.49147,0.7528 4.18024,2.3632 -3.96873,1.4715 -5.64172,3.3647 -4.32533,3.0426 -7.80867,7.7895 -13.2525,8.8021 -1.41553,1.2635 -5.7964,3.1764 -5.55891,4.4625 1.69334,-0.6852 6.28812,-5.7181 4.4451,-1.5213 2.18268,-3.9433 7.76346,-4.4194 11.00936,-7.7402 6.89351,1.2323 -2.95533,5.9357 -5.22294,7.8709 -2.46612,-1.6635 -9.04526,3.8595 -3.23208,0.6997 6.25193,-1.7395 -0.95903,4.4985 -2.74739,6.2239 -1.99384,2.7217 4.92419,-3.3996 5.53446,-5.0551 1.49093,-2.5752 8.51832,-7.2756 4.57655,-1.6303 -2.24435,4.4736 -5.62176,8.303 -9.70524,11.0186 3.75371,-0.9553 7.0518,-5.4992 9.20488,-9.1144 2.28897,-3.1853 2.95294,-8.3314 6.68142,-9.3894 -0.45133,1.7235 -1.59026,5.2551 0.32868,1.5799 -1.28031,-3.274 6.3671,-4.3158 2.41708,-1.2248 -2.83525,4.7901 -4.82161,10.1305 -9.92263,13.0284 -0.87813,1.2725 -7.19476,6.0201 -5.17101,5.446 3.73929,-3.4117 7.82543,-6.6272 11.32382,-10.3423 2.21259,-4.5875 4.38878,-9.6699 9.24322,-11.9766 2.0937,-1.7243 4.36099,-3.0836 2.65692,0.5796 -0.88521,2.9061 -7.7588,3.2791 -6.82122,3.5081 0.14269,3.3411 -2.47993,6.8088 -4.62559,9.9605 0.4977,4.109 -7.50338,6.566 -6.9552,8.3875 3.97036,-2.7791 7.42497,-5.5189 8.74927,-10.3149 3.20232,-5.0323 4.18757,2.8516 0.51609,4.0388 -3.29602,3.9217 -5.67909,8.6812 -9.70995,12.1017 2.67937,-1.8001 6.05518,-4.9568 7.67198,-8.3446 2.33188,-4.6669 7.83017,-7.2584 9.11421,-12.6853 2.28367,-4.2625 2.58771,-9.2497 5.43024,-12.9093 1.0972,-0.7225 4.2423,4.69 0.38685,3.1824 -3.42888,-0.9907 0.89116,2.0489 2.45155,0.4575 -1.24481,3.1153 -4.52494,7.1133 -5.7793,11.0528 -1.26178,5.2233 -6.28276,5.9452 -9.81205,8.5767 1.61941,-0.086 4.03219,-2.504 1.79489,0.989 -1.5565,4.5982 -6.08839,7.9101 -8.00671,11.8294 2.043,-1.2524 5.70597,-7.6997 6.37716,-6.5907 -1.07571,2.0832 -1.39899,5.2963 0.15304,1.4401 0.95903,-3.5897 1.71756,-8.9503 5.93919,-10.1018 -2.00989,4.0767 0.0867,10.547 -4.51674,12.9462 -2.18595,0.6654 -8.1603,6.929 -2.99065,2.708 1.65178,-1.1099 5.61474,-4.3541 3.00089,-0.4258 -0.54143,1.3342 -4.36925,5.627 -0.89013,2.6046 2.02816,-2.3882 3.6547,-7.4797 4.66399,-9.1592 2.91198,4.0197 -1.03136,10.0851 -2.05389,12.3793 1.08657,-1.9578 3.0815,-3.7239 1.51442,-0.2724 -0.63589,4.926104 3.00457,-9.1617 2.62252,-5.4867 1.42566,-5.0516 0.0882,-11.765 4.338,-15.5157 1.25506,5.07 -1.37691,8.8456 -2.25633,13.8716 0.19173,1.8244 -1.43367,9.706604 0.41826,3.8943 -0.31746,-3.599 1.06544,-8.5559 2.6196,-10.7157 3.60588,3.6457 -2.4334,8.5574 -1.70597,10.8571 0.38889,-1.6358 2.79549,-5.2357 1.48815,-1.428 -0.62233,1.7856 -0.52359,7.612504 0.25063,2.3375 1.49293,-5.0561 1.66768,-10.0103 0.13538,-14.7718 -0.007,-2.673 -1.06186,-8.0738 2.0351,-8.4206 -0.32328,3.2702 3.36463,9.1207 -1.29731,8.1547 3.39415,-0.9468 1.09045,10.186 2.35925,3.8709 -0.39687,-2.8145 0.90004,-4.7562 1.00269,-0.7784 1.07269,5.3764 -3.00409,10.0373 -2.72634,15.0649 0.96252,-4.7578 4.13108,-9.8249 3.32419,-15.1903 -0.92092,-4.6968 -1.95451,-9.3644 -2.44772,-14.1498 -0.41354,-1.7177 0.73634,-9.2048 1.20785,-3.7966 0.22733,-1.2353 0.29108,-4.6346 1.46717,-1.0048 0.75567,4.5691 -0.40848,10.3436 1.81923,15.2456 0.75607,5.1876 0.1926,10.4074 -0.2342,15.5563 1.37297,-2.9039 1.11263,-7.7495 1.13991,-11.3391 -0.27819,-2.9079 -0.23461,-3.2126 1.36143,-1.8029 -2.36799,-3.3896 -3.2922,-7.7405 -3.42246,-11.9539 1.90911,2.1307 0.64455,7.2231 2.9117,4.6471 1.66429,4.5047 1.13358,9.8735 2.50066,14.6301 0.30737,1.8509 -1.04681,8.9415 0.46989,3.3191 1.32392,-3.7961 -2.71828,-10.8487 -0.41583,-12.3774 -1.16395,-2.7806 -2.72418,-7.6504 -2.35152,-10.1515 2.11665,-3.2214 2.7171,4.4932 1.61685,6.228 -0.1017,3.8783 1.13198,-4.2523 1.39193,0.2766 1.04395,6.1423 1.92231,12.3253 1.54159,18.5705 1.46317,-2.9132 0.38913,-9.5861 -0.25412,-13.6725 -0.58,-4.8838 -1.60504,-9.7823 -3.09485,-14.4424 -0.98661,-4.5155 4.34187,1.4666 1.96648,3.869 0.23237,2.1326 1.07589,4.3602 1.96161,3.3708 1.69613,2.4483 -1.08351,-3.8894 1.43951,-0.4748 3.42369,4.6596 1.84345,10.7167 3.31314,16.0185 0.76327,1.5297 0.10091,8.3675 1.26286,6.8928 0.46557,-3.7107 -2.31487,-12.1124 -0.96916,-12.8418 1.36592,1.6633 1.80425,10.5432 2.83153,8.8768 -0.71032,-4.7765 -2.49876,-9.0961 -3.53961,-13.575 -0.36045,-2.0691 -1.88347,-5.1908 0.56777,-1.9135 3.43638,2.1996 3.52917,8.7813 3.30159,10.7826 1.86337,-3.0411 1.59184,5.582 3.47928,5.2654 -2.50698,-4.982 -2.3618,-11.0498 -5.39046,-15.7233 -2.10949,-1.7499 -6.885,-5.9127 -4.77986,-8.1874 3.08679,1.7628 -4.70163,-3.5226 0.55922,-2.8598 1.99983,3.6165 4.63944,7.2304 5.63417,11.431 2.10034,4.05 5.83561,7.4468 5.80444,12.3813 0.82894,6.8026 0.8679,-2.4258 -0.32505,-4.4932 -1.17421,-2.9091 -6.03644,-8.2243 -5.02043,-9.6652 1.6681,2.0396 3.86268,4.4189 4.57377,5.1681 -1.10754,-3.1965 -6.90355,-7.1582 -6.19451,-9.231 2.29698,2.2983 1.55263,0.6816 3.91167,-0.3929 3.12999,5.2178 4.40368,11.0606 6.95104,16.6084 2.48635,3.7518 -3.34838,-8.4618 -1.73858,-5.4336 -1.13134,-2.7605 2.95641,4.4492 0.91442,-0.064 -1.74335,-4.0965 -4.42565,-7.7863 -5.75296,-12.0634 4.71943,1.7065 4.83969,6.9447 7.33559,10.7636 0.94275,2.227 2.96204,5.5482 3.94081,6.0509 -2.69197,-4.1637 -4.73441,-8.7195 -6.80438,-13.2133 2.69955,-0.09 6.47399,6.5591 8.43426,9.9189 3.48412,5.2157 -3.32768,-7.6099 -2.05146,-4.5325 -0.9698,-3.7221 -7.13322,-4.9488 -6.10509,-8.8194 3.03592,3.6888 6.8281,6.5722 10.1172,9.982 3.91099,3.6294 -2.89709,-4.1687 -4.47533,-4.8734 -3.61506,-3.6278 -7.38398,-7.2159 -10.84691,-10.9254 -2.83964,-4.2095 8.41036,4.9022 5.31361,2.2181 4.00581,3.4004 8.80519,5.6982 12.03468,9.9813 0.93433,1.818 3.68939,2.4089 0.92905,0.3787 -2.86596,-4.3786 -7.48377,-6.758 -11.44024,-9.9275 -1.56872,-2.1548 -8.50844,-4.1709 -7.43034,-5.9026 4.88719,2.2795 10.53733,2.6985 14.78733,6.4489 2.09781,2.124 6.1044,5.5916 8.33672,5.4429 -3.73859,-1.8551 -6.6835,-4.8446 -10.04939,-7.2288 -3.47042,-2.89 -7.99874,-3.0558 -11.98146,-4.7229 -2.13431,-1.7164 -9.11976,-6.6416 -2.76275,-5.8514 1.66731,-0.5524 5.13002,5.9423 4.67079,3.3161 -2.40261,-1.5349 -3.09915,-4.0861 0.30672,-1.8313 2.36529,4.1449 7.57445,5.9607 12.29321,7.5417 2.89632,1.1646 8.09617,5.8817 9.4446,4.9894 -2.07399,-1.231 -6.87578,-5.8276 -6.71102,-4.602 2.20893,-0.7579 8.59182,1.2751 5.79487,-1.0408 -5.04785,1.4661 -10.01601,-0.2878 -14.7862,-2.3876 -3.15781,-0.247 -6.8118,-5.7345 -1.05972,-3.8226 5.9575,-0.518 11.02851,2.9399 16.53241,4.592 2.16635,1.1707 6.6284,-0.1233 1.71577,-0.1389 -2.60757,-1.0253 -10.03373,-2.8161 -9.311,-4.2767 2.3402,-1.8693 7.0636,2.429 7.99298,0.8559 -5.02519,-3.1386 -10.15923,-0.3467 -15.52144,-1.6979 -2.24512,-0.4018 -8.03994,0.7234 -6.98822,-2.9827 1.83327,1.2112 5.26236,1.8202 1.54912,-0.047 -3.38157,-2.6968 5.80797,2.1725 2.16515,-0.6948 -2.08248,-3.0082 4.27138,0.9696 6.29133,0.184 4.82947,-0.3177 8.59825,3.5549 13.23648,3.7079 1.176,0.9307 7.92991,1.2913 3.16477,0.2995 -2.47658,-1.0182 -9.79705,-1.335 -8.69958,-3.5491 1.66658,-1.4475 6.18467,0.516 6.8408,-0.9579 -4.15587,-1.1965 -8.01056,1.8044 -11.98206,0.1842 -3.57317,-0.021 -10.23776,-1.2775 -11.07899,-3.7425 4.6959,-1.7729 9.31524,0.2205 13.86635,1.1766 4.60345,-0.2765 9.35598,-1.341 13.64752,0.9208 1.33554,-0.7365 -5.67506,-1.27 -1.65552,-3.1544 -3.40612,1.8287 -8.13531,1.1198 -12.15225,1.6213 -2.77893,-0.7139 -10.48519,-1.7251 -4.41335,-3.9661 5.05845,1.0125 10.40744,-0.8644 15.40063,-0.6657 -4.20385,-0.6676 -8.60509,-0.2242 -12.70493,0.5277 1.07457,-1.4925 6.96935,-3.5138 2.08017,-2.1853 -0.86016,1.8782 -7.22899,2.9136 -3.52239,0.2547 4.15711,-3.9797 10.75646,-1.3907 15.53447,-3.8116 -3.11621,-0.3731 -9.58375,2.0098 -10.61334,0.5521 1.2577,-1.5452 7.33488,-1.6094 6.45867,-2.8097 -4.82669,1.2017 -8.90739,3.4963 -13.93351,3.7075 -5.06324,2.5716 -10.93267,2.3384 -16.25861,4.0436 -6.18446,0.537 1.5247,-6.3184 4.33197,-5.1234 3.80584,3.0734 8.65633,1.9065 12.95373,0.4344 3.80602,-1.9832 7.30666,-4.4244 11.63278,-5.3272 1.75315,-0.283 6.04012,-1.6477 1.72725,-1.0606 -4.74113,1.058 -9.05154,3.1172 -13.1149,5.651 -3.62133,0.908 -8.04041,3.324 -11.2901,0.2525 5.18751,-1.4508 10.25019,-3.0199 15.24204,-4.8547 1.98828,-0.3923 10.05502,-3.2748 7.95267,-3.5509 -3.6004,1.8851 -7.5894,2.7715 -11.37555,4.1016 2.52497,-3.0665 9.75008,-3.6624 10.9085,-6.2032 -4.09208,2.1332 -8.74397,3.2113 -12.2442,6.4291 -4.17268,1.6905 -8.7281,3.5327 -13.26023,3.3194 3.86303,-3.4596 9.42962,-2.6381 13.73597,-5.2822 2.37813,-1.1381 8.22259,-6.3154 7.90678,-5.0552 -5.1601,3.1414 -10.53842,6.4211 -16.6451,7.1347 -3.31216,0.5946 -5.73766,4.5902 -9.1779,2.106 3.75757,-3.9478 9.79129,-2.6464 14.45339,-5.4346 4.16462,-1.67 7.65446,-4.4369 11.61169,-6.4999 5.3968,-2.59 -4.41025,1.0166 -5.64232,2.6499 -1.58324,1.0641 -7.57835,4.329 -6.66688,3.1294 1.83678,-1.9111 7.42141,-3.7272 7.50864,-5.6248 -3.60166,2.4254 -7.32352,4.8678 -10.88046,7.1321 -3.30099,1.6388 -9.72727,2.2859 -3.98894,-1.5058 3.90144,-2.3463 8.31158,-3.6064 11.96811,-6.4765 1.3518,-1.1426 8.96768,-5.8331 6.74252,-5.5293 -2.79396,1.9406 -8.22213,6.3898 -9.83264,6.4186 1.49775,-1.3905 4.95309,-7.2755 1.30839,-2.7463 -1.84203,4.9675 -6.99171,5.4307 -10.8256,7.9838 -1.37684,3.1498 -6.73029,4.3312 -7.99907,1.7214 2.59621,-4.0167 5.48127,-8.679 10.63506,-7.2583 4.05402,-2.6974 7.62125,-6.1969 11.90679,-8.5976 1.75316,-1.3388 4.82046,-4.0044 0.78929,-1.3959 -1.37486,1.3754 -7.46057,5.4777 -3.97584,1.3044 2.98206,-5.5161 -2.06375,1.8644 -2.90724,3.4552 -1.7509,1.616 -8.44235,7.9148 -5.36165,1.5767 -0.0978,-2.4881 6.82757,-3.9031 1.45134,-2.7466 2.27337,-1.4383 7.31609,-8.0555 6.45964,-7.8865 -3.00998,4.3817 -8.20681,7.3261 -9.17942,12.8969 -1.63839,2.3788 -4.75376,0.077 -2.05634,-2.1881 2.04611,-3.9986 6.1149,-7.3621 7.60518,-11.2787 -2.28413,2.8711 -4.53911,5.9369 -6.77192,8.9276 -2.17102,4.0046 -4.57408,7.95 -8.0933,10.9037 -0.9999,2.6276 -5.79127,7.2225 -4.14315,1.4234 -0.46013,-5.9599 6.36191,-7.1291 8.479,-12.2495 3.18195,-2.881 7.17835,-7.7152 9.12482,-10.2469 -3.56373,2.3943 -5.30099,6.3863 -8.56489,9.0152 -3.00564,2.1686 -3.90893,6.6504 -7.65998,7.7637 2.78061,-4.2744 6.75713,-7.6542 9.24259,-12.1338 2.0164,-1.7702 4.404,-7.2250997 1.07111,-2.209 -2.77206,2.8838 -6.99491,11.0693 -9.12818,10.5402 0.7425,-5.326 5.63742,-6.7624 7.43184,-11.5345 1.5285,-0.7387 4.77396,-8.2348997 1.97654,-3.4303 -1.31832,2.1796 -4.58795,6.6441 -3.92527,1.6761 0.74131,-1.9948997 2.05897,-6.7407997 0.12522,-2.3395997 -1.23893,2.5409997 0.87477,9.6364997 -2.86688,8.6264997 0.14865,-1.8025 0.15622,-7.6375 1.02592,-6.8959 -0.50685,1.9766 -2.14174,11.1718 -2.11749,4.9542 -0.18946,-3.9836 1.77548,-7.2066997 3.96314,-9.7252997 -1.50906,0.8018 -4.3726,6.0526997 -3.23489,1.1011 -0.23713,-5.8453 0.1481,3.8193997 -2.24706,4.3739997 -1.42372,3.541 -5.75664,8.4794 -7.75947,9.1799 1.74213,-4.5451 5.38484,-8.1131 5.96585,-13.1384997 1.29612,-2.4242 0.79204,-4.5207 -0.33293,-0.7016 -0.39396,5.6209997 -5.10142,9.2932997 -6.32686,14.5319997 -0.91467,2.8838 -0.0532,10.2862 -4.08252,5.9079 2.12728,1.134 1.55481,3.2086 -0.70625,1.7358 -0.11479,-5.7857 2.30729,-11.1274 5.32375,-15.8966 0.339,-2.0667 5.11625,-3.2681 3.93961,-5.2974997 -0.6007,2.4976997 -3.84485,3.8804997 -2.18429,0.1747 -0.0318,-2.1845 4.05659,-7.68620004 2.71839,-7.42110004 -2.62955,3.60630004 -2.96203,8.19330004 -4.83297,12.09699974 -1.8905,2.2013 -3.42031,7.6228 -4.74615,8.6737 -2.91634,-5.3402 2.56001,-9.4997 3.0777,-14.6539997 1.15394,-1.9864 2.70903,-6.51730004 0.31989,-2.0245 -1.22004,3.2803 -2.9245,9.2758997 -4.66635,10.4138997 -2.03883,-4.4237 2.74514,-7.2322997 2.89655,-11.5347997 0.11772,-4.24010004 -2.34356,8.2174997 -3.03336,5.3639 0.36144,-2.8631 0.83352,-6.5313 0.002,-9.08020004 z M 235.9618,10.860346 c -0.78097,4.3191 -0.007,9.4174 -3.69733,12.538 -3.67948,4.3243 1.26424,-8.2189 -0.80391,-3.3498 -1.9593,3.1241 -0.197,6.2171 -2.5859,9.309 -1.73363,-1.2318 0.16846,-8.1099 -1.44726,-3.2962 0.99158,3.6808 -2.48384,-1.2323 -1.22726,1.9682 -2.07741,0.9651 0.25687,-8.1183 3.60224,-8.8292 2.84453,-2.1338 3.50519,-6.1237 6.15942,-8.34 z m -16.14315,7.1441 c 2.29947,5.5725 -0.0993,11.4216 1.11435,17.2741 -0.0434,3.3648 3.95264,10.6072 -1.88793,8.0295 -3.01815,-0.2412 -0.76355,-2.7834 0.81675,-1.8137 0.85695,-0.1888 -3.87287,-2.4048 -0.40284,-3.4134 1.31571,-3.5148 -4.20726,4.7442 -3.76873,-0.9567 -2.17932,-1.8851 3.96512,-1.0609 2.10076,-2.1662 -6.09866,0.8333 1.34968,-7.1028 1.4132,-10.5773 0.92771,-2.0496 -0.0539,-4.2684 0.61444,-6.3763 z m 16.29619,1.1907 c -2.95987,2.8233 -1.03924,9.6813 -5.71111,9.6778 -1.20583,-2.6251 4.28595,-6.3387 5.23708,-9.6528 0.15705,0.055 0.32841,-0.1397 0.47403,-0.025 z m -28.48152,6.7764 c 2.13436,1.1432 6.0924,5.3929 1.86817,5.0177 2.97202,-0.037 3.11029,4.5766 0.30325,1.997 -1.27967,-1.9714 -3.97238,-5.437 -2.17142,-7.0147 z m 19.54727,2.1809 c 4.64495,2.2681 -4.73594,5.4302 -1.4373,1.0794 0.45625,-0.3445 0.81823,-1.0201 1.4373,-1.0794 z m 4.87512,1.2218 c -0.1951,3.534 -1.43548,4.2408 -3.2386,2.1404 0.31117,1.8571 -1.75683,1.718 1.27684,1.7623 3.89834,3.5467 -5.18088,1.0794 -1.45009,-1.9559 0.37808,-2.2083 1.71917,-1.9542 3.41185,-1.9468 z m -19.96514,0.141 c 3.59491,0.9221 1.24784,6.0844 -0.24981,1.8496 0.0433,-0.5593 0.0862,-1.4747 0.24981,-1.8496 z m 12.56526,0.5669 c 0.89351,1.7008 -3.22211,2.5966 -0.17739,2.1938 1.11145,3.1092 2.45163,7.0983 -2.07253,7.4744 2.84565,-0.6835 4.05265,-0.5948 1.79263,2.3944 -1.50755,3.5174 -2.10249,-4.4825 -2.54935,-6.3634 2.14353,-0.7643 3.86735,-3.9371 0.84736,-1.1444 -1.99613,1.1006 -2.14143,-6.2197 0.79244,-4.5333 0.25804,0.043 1.54405,-0.94 1.36684,-0.021 z m 3.25457,1.2396 c -0.95113,2.0028 -1.9391,6.7683 -2.66391,2.1663 -1.00945,-2.6056 1.61977,-0.824 2.66391,-2.1663 z m 42.57895,1.1164 c -1.62828,0.9558 0.97741,0.7138 0,0 z m -1.04506,0.4419 c -1.65673,0.7236 1.64958,0.473 0,0 z m -68.69701,0.5563 c 4.04937,-0.9605 5.60002,3.221 3.19229,4.2543 -1.21412,-1.3042 -2.33545,-2.674 -3.19229,-4.2543 z m 12.92638,0.096 c 1.60697,0.5831 1.66838,4.9751 -0.7371,2.2257 -2.33136,-1.8693 0.92472,-1.1261 -0.1035,-0.7558 -1.90699,-1.1433 -0.4219,-1.3244 0.84063,-1.4699 z m -5.27623,0.019 c 1.7139,2.1345 2.24274,4.7957 -1.3679,3.385 -1.19766,-1.2009 0.89101,-2.2243 1.3679,-3.385 z m 0.84158,0.037 c 2.15576,0.685 3.77497,4.2928 1.14951,2.7086 -0.7444,-0.5707 -0.7205,-2.3336 -1.14951,-2.7086 z m 18.25113,0.29 c 3.79861,1.8118 -2.50979,7.1639 -0.70924,2.0468 0.23845,-0.6815 0.44753,-1.3739 0.70924,-2.0468 z m -22.38964,0.02 c 2.99862,-0.4386 1.43258,3.2332 0,0 z m 24.21005,1.6557 c 3.45462,2.123 1.3457,9.2857 -3.20506,9.4635 -4.92948,3.012 -0.55111,-3.3483 -0.009,-5.522 0.45659,-1.4636 3.62826,-0.6857 3.21444,-3.9415 z m -23.37432,0.4303 c 1.57751,2.7965 0.66822,5.0245 -1.10733,1.3591 l 0.48772,-0.7427 z m 28.48912,0.3235 c 2.03664,1.2793 7.29902,0.5792 2.88464,3.1788 -2.80521,2.3557 -5.58173,-0.9213 -2.88464,-3.1788 z m -21.45984,0.2371 c 3.20217,1.9067 -2.35246,2.9978 -3.2955,4.7853 -2.80175,-0.8096 -3.81816,-5.4162 0.30118,-3.665 -0.99805,2.8318 0.38032,2.7186 0.61025,-0.1153 0.75262,-0.4223 1.52151,-0.8687 2.38407,-1.005 z m -14.61918,0.3213 c 1.69363,1.4591 9.50924,1.0362 5.8835,4.035 -2.11817,-1.0697 -8.61628,-2.0386 -2.81108,-0.3005 -4.46143,1.0581 6.34383,0.029 1.6341,2.2988 -3.21202,1.7156 -10.4049,-3.6388 -9.42323,-3.2146 1.61792,-0.7837 3.44709,-1.5093 4.71671,-2.8187 z m 16.34977,0.5088 c 1.75732,2.9595 0.27504,8.8289 -3.51239,4.8655 -2.8799,-2.985 4.49014,1.3807 1.649,-1.3089 -3.63275,-1.3849 2.86442,-1.4222 1.86339,-3.5566 z m 18.1683,0.2032 c 1.19835,2.9855 -3.42795,2.7524 -0.458,0.3513 z m -15.27436,1.9689 c 1.51211,2.458 -2.82392,4.2009 -1.56744,0.2353 l 0.81948,0.055 z m -11.42724,0.41 c 2.19871,-0.2643 -1.62652,6.6188 -0.42985,4.2631 -1.22819,-0.6188 -1.42042,-3.8353 0.42985,-4.2631 z m 26.74729,0.2072 c 1.7864,1.1244 -3.57463,3.9258 -1.39495,0.528 l 0.70135,-0.2592 z m 2.11544,0.3364 c 1.16515,0.7749 -3.49003,1.2043 0,0 z m 1.72552,0.1992 c 2.77567,0.7079 4.25471,1.101 0.70492,2.8387 -2.30647,1.7207 -3.10408,-2.5417 -0.70492,-2.8387 z m -28.67915,0.424 c 2.66623,1.1314 3.84617,2.4692 0.18296,2.968 -2.05341,1.3938 -1.58494,-3.2173 -0.18296,-2.968 z m 26.61369,0.808 c 0.67863,2.7537 -4.72976,2.3759 -0.8604,3.1361 2.27057,3.4544 -10.98589,0.4046 -4.35226,-0.832 1.74032,-0.6932 3.51146,-1.9464 5.21266,-2.3041 z m -19.01668,0.5082 c 1.64457,1.3892 5.00369,1.0993 2.64079,2.9668 2.05379,-1.7491 3.04217,4.5339 2.19542,-0.2256 -2.23076,-2.1923 5.25683,-0.3083 2.21772,2.057 -2.38219,1.6433 -5.9747,-2.3632 -7.38458,-3.9427 z m 43.48618,0.4693 c -0.70976,0.8416 -4.71445,5.2881 -7.91726,4.1593 -3.71895,-0.099 -11.89724,3.1834 -12.83335,0.7737 5.3488,-1.7601 11.22611,-1.6386 16.37011,-4.1761 1.46695,-0.2085 2.89647,-0.6884 4.3805,-0.7569 z m -54.69207,0.011 c 1.30343,2.3816 -4.84448,0.4738 -0.95145,0.3075 z m 7.4492,0.5839 c 2.18332,0.4841 5.27182,2.6512 1.24191,1.1624 -1.25732,1.7403 -2.51528,5.8744 0.38709,3.5509 2.65158,0.4814 -3.33118,3.7966 -2.07029,0.1887 0.63103,-1.8101 -2.67627,-4.8894 0.44129,-4.902 z m 23.3525,0.4338 c 2.98403,2.3399 -3.46695,0.8349 0,0 z m -34.16139,0.056 c 1.62931,1.3396 9.58849,-0.372 6.39529,2.6061 -2.9095,-0.5313 -5.37584,1.1486 -7.18569,-1.2879 2.61247,2.6814 -5.58331,0.6521 -1.13151,-0.6078 0.65545,-0.2114 1.16552,-1.2213 1.92191,-0.7104 z m 8.75482,0.2357 c 2.54092,2.114 -1.63369,4.2118 -0.67148,5.5925 0.99238,-3.4721 2.55132,-1.005 1.87568,0.9436 -1.70996,0.7006 -3.0046,-1.6744 -5.20231,-1.9309 3.17295,-0.014 2.48718,-4.0567 3.99811,-4.6052 z m 3.40097,1.0229 c 4.39686,1.9715 -2.97409,4.4663 0,0 z m 3.09329,0.4477 c 4.07893,0.1943 -3.41208,4.8078 -1.17247,0.8713 -0.94503,-1.1628 0.75248,-0.6789 1.17247,-0.8713 z m 9.96539,0.1646 c 3.56361,-0.041 0.57223,4.9292 -0.89199,2.5707 2.73966,1.5146 2.08544,4.0619 -0.90535,2.2121 -2.33359,-2.522 -0.7386,-3.6638 1.79734,-4.7828 z m 8.89586,0.6132 c 1.23155,1.5562 -1.7039,-0.1058 0,0 z m -30.45639,0.3234 c 2.46668,0.1229 3.5607,0.9201 0.50671,1.7092 -1.20278,-0.4604 -2.36571,-1.2194 -0.50671,-1.7092 z m 24.68071,0.049 c 4.6316,-0.1218 8.43195,2.7738 12.98307,2.4705 3.19663,-0.8974 9.63064,-2.5478 11.14136,-1.2044 -3.24882,2.5337 -8.53714,2.2057 -12.79739,2.6172 -4.10721,-1.4162 -9.09857,0.6497 -12.10236,1.3196 -1.55759,-1.7263 -0.89537,-4.9606 0.95652,-1.7128 -1.80882,2.7474 3.6665,-1.8932 5.22752,-0.6133 -1.74346,-2.0693 -2.55981,0.5773 -5.29325,-0.2861 -1.36311,-0.9198 -2.1476,-1.8242 -0.11547,-2.5907 z m -10.84493,0.1447 c 3.90056,0.6371 -3.26151,3.6461 0.29327,2.9615 2.60035,-2.0315 -1.34203,7.482 -1.80944,1.9646 -1.91433,-2.6107 -1.18675,-3.7543 1.51617,-4.9261 z m -17.63406,0.2169 c 2.00841,-0.4943 6.08906,3.7051 1.99048,1.1482 -0.12796,-0.1911 -2.54169,-1.0697 -1.99048,-1.1482 z m 21.74806,1.1639 c 0.72302,1.8463 4.16924,4.7822 0.38483,3.6948 -2.14628,-0.8366 -4.46071,-3.4279 -0.38483,-3.6948 z m -7.5537,0.8342 c 0.77841,1.7259 -1.24406,4.986 0.99336,1.9027 2.34348,2.4179 -2.70841,5.5882 -1.95209,1.6379 -0.62702,-1.5374 -1.27808,-3.191 0.95873,-3.5406 z m -9.7137,0.081 c 2.13657,0.6274 6.02781,2.1394 1.5251,3.022 -0.56834,-0.7119 -2.81395,-2.1535 -1.5251,-3.022 z m -1.57994,0.2598 c 2.09677,1.2493 3.48888,5.2893 0.14016,4.0856 -3.07632,-0.3668 -3.86617,-3.3715 -0.14016,-4.0856 z m 9.07338,1.0067 c 0.33063,0.5498 -0.5201,-0.04 0,0 z m 23.00579,0.4792 c 2.20037,0.646 7.43229,-0.653 4.26853,2.3603 -0.75245,3.6945 -8.16368,-2.4943 -4.26853,-2.3603 z m -23.70302,0.047 c 3.85543,1.6552 0.029,7.6368 -1.49738,3.8508 -3.59267,-1.7259 -0.88905,-3.3861 1.49738,-3.8508 z m 32.29561,0.084 c 3.36167,0.8386 3.38153,3.5571 0.0393,3.4276 -1.03567,-0.5892 -2.18616,-3.9983 -0.0393,-3.4276 z m -24.22301,0.042 c 2.01955,-0.1135 5.58589,4.8038 2.18447,3.8371 -2.00112,-2.7919 -1.78865,-0.5821 0.17601,0.9923 -3.0661,4.9622 -4.11179,-2.5538 -2.36048,-4.8294 z m 13.20417,0.074 c 0.6767,1.8441 6.65049,4.7794 3.10436,5.5898 -1.35463,-1.0576 -7.75274,-5.0264 -3.10436,-5.5898 z m 8.99607,0.098 c 0.33306,2.0752 4.07296,6.8519 -0.69122,5.0943 -3.13521,-1.0887 -0.79891,-3.4433 0.69122,-5.0943 z m -15.79626,0.2388 c 5.08677,1.7692 -5.32944,3.1547 -0.63702,-0.01 l 0.18999,-0.04 z m 4.06279,0.9532 c 0.75388,2.4783 7.32373,4.3501 4.36743,6.786 -1.97203,-1.5359 0.96642,-2.1578 -2.27525,-1.8442 -3.38192,-1.1309 -1.07439,-2.7128 -0.46276,-2.7495 -2.37381,1.5002 -2.2365,0.6192 -2.49958,-0.7959 0.75078,4.1474 -5.28424,-0.4426 -1.00132,-0.4317 l 0.94398,-0.4776 z m -22.42237,0.01 c -1.9162,2.0272 1.39649,1.1008 2.0695,3.4292 -2.02742,0.6829 -7.15865,-1.0047 -2.93609,-3.076 l 0.40427,-0.2474 z m 16.52116,1.4256 c 3.02492,1.0898 4.41879,3.163 0.84478,3.0116 -1.16318,0.063 -1.24154,-3.006 -0.84478,-3.0116 z m -6.1371,0.2651 c -0.46881,2.8868 -2.50489,4.7303 -2.95686,0.5721 0.95705,-0.3269 1.96981,-0.3918 2.95686,-0.5721 z m 19.93334,0.7369 c 4.90609,1.6519 -1.645,2.1028 0,0 z m -23.44229,0.1738 c 1.84658,1.8919 -2.56321,3.3348 -1.20285,4.9355 0.20546,-3.2128 4.81863,-2.6669 1.20715,-0.1628 -2.37721,4.4388 -8.03048,-2.7945 -2.92374,-2.0449 -1.03572,2.1894 1.02798,0.6401 0.70664,3.4622 1.6793,-2.599 -2.75854,-5.3208 1.69989,-5.6011 l 0.45188,-0.5509 z m 8.85663,0.8399 c 0.75877,1.8581 2.07845,8.9227 -0.69805,5.186 0.39959,-1.7421 -1.99508,-4.7483 0.69805,-5.186 z m -16.18567,0.1316 c 2.34708,1.2807 -5.00605,2.1578 -1.1025,0.2034 l 0.54052,-0.1451 z m 21.98175,0.067 c 2.86605,1.7459 0.62578,2.2596 0,0 z m -0.51258,0.8034 c 0.92001,3.0478 -4.3581,1.4302 -1.50436,0.029 0.92094,5.6509 -0.23194,-2.0872 1.50436,-0.029 z m -47.37029,0.3968 c -0.96949,0.7742 0.95636,0.5903 0,0 z m 43.29027,0.04 c 1.65747,0.4042 2.1852,3.6294 3.92602,1.2074 0.86057,5.019 -4.88551,2.1436 -3.92602,-1.2074 z m 6.61963,0.2464 c 1.7737,0.634 5.51164,2.2166 4.39252,2.3151 0.96715,3.6039 -5.83714,-0.1363 -4.39252,-2.3151 z m 4.79497,0.145 c 2.67709,1.3812 7.60177,7.5501 1.50498,5.0579 -3.24575,-0.6441 -1.22985,-2.2389 0.3685,-1.4807 -1.26144,-0.9638 -2.45034,-1.7349 -1.87348,-3.5772 z m -14.52797,0.087 c 2.55977,4.3461 -2.92852,1.0957 0,0 z m 8.03686,0.1451 c 2.28585,1.3323 2.76704,6.018 -0.3592,3.8616 -0.0638,-1.2922 -0.30636,-2.6719 0.3592,-3.8616 z m -7.71939,2.5258 c 1.19798,1.6886 0.5511,2.4391 0,0 z m -12.44731,0.024 c 6.20877,2.012 -3.15094,3.7186 0,0 z m -1.79668,0.024 c 1.58953,0.1235 -1.98775,0.6994 0.72274,1.4503 -1.47167,1.818 2.57904,1.2949 -0.46939,1.8613 -3.77204,1.1219 -2.03468,-0.4834 -1.19164,-2.9853 l 0.20104,-0.3207 0.73725,-0.01 z m -1.60317,0.6428 c -0.043,3.8159 -5.95697,6.2323 -6.85544,3.1897 1.40364,-1.5132 5.60601,-4.8662 6.85544,-3.1897 z m 19.2603,-0.136 c 1.33774,-0.1319 1.70619,5.4667 1.45385,1.1854 3.90089,-3.3207 0.28476,8.4279 -0.94074,1.6497 -0.21029,-0.9372 -0.36639,-1.8858 -0.51311,-2.8351 z m 7.50186,0.3355 c 2.2313,-0.1082 4.37483,3.7265 3.1902,4.306 -0.96144,-1.4495 -2.87867,-2.9105 -3.1902,-4.306 z m -11.08718,0.7353 c 0.35837,1.4865 -5.18673,5.0451 -2.32342,4.0938 -1.56161,-1.825 1.55308,-3.5779 2.32342,-4.0938 z m 10.49159,-0.1691 c 3.83484,2.5534 1.19279,7.7719 -2.41353,4.2376 -1.70606,-2.386 0.93487,-5.2301 2.04424,-2.3325 -1.04879,2.6301 -0.60196,4.2956 0.51063,0.6667 3.56639,1.8455 -1.44297,-1.2165 -0.14134,-2.5718 z m -9.19846,0.5781 c 4.13506,-0.6918 0.85272,6.668 0.0386,1.0164 -0.66059,0.06 -0.52719,-1.1907 -0.0386,-1.0164 z m 13.58045,0.611 c 5.30775,0.094 6.4535,5.8848 10.34914,8.6 -1.21549,3.3435 -7.38169,-2.8402 -8.55513,-5.6918 -1.01173,-0.5318 -2.39479,-1.8233 -1.79401,-2.9082 z m -7.72096,0.6591 c 0.93677,4.8236 -1.42251,1.115 0,0 z m -3.13867,1.4679 c 1.46515,1.1942 2.82267,5.2927 0.29422,5.1589 -0.23607,-1.9181 -2.30356,-3.7531 -0.29422,-5.1589 z m 9.06722,0.1413 c 0.92425,3.1939 10.28764,5.4345 5.55923,7.7971 -2.22174,-0.5079 0.70922,-3.5848 -1.98441,-0.8772 -2.42688,-0.9421 -3.83072,-4.3866 -3.57482,-6.9199 z m -21.34759,0.059 c -1.34757,2.6298 -2.63272,9.067 -4.90634,9.0468 -2.94508,-3.4893 2.58186,-7.2166 4.90634,-9.0468 z m 5.03322,0.4373 c 1.87703,1.7556 -0.15157,5.1822 -0.5162,4.4026 2.84936,-2.8239 1.94188,2.9482 -0.26967,3.7034 -2.2318,4.8162 -5.29585,9.6501 -5.01307,15.7176 0.28094,1.8905 -1.65042,6.2913 -0.57973,2.1746 0.15229,-4.7336 -2.54867,-9.0739 -0.0478,-13.7456 2.2392,-4.0713 4.81091,-8.0321 6.35786,-12.4498 z m 18.51042,0.029 c 2.55114,0.9279 3.11302,4.2787 0.38913,1.2609 l -0.68857,-0.7587 z m -16.83389,0.5858 c -0.7495,4.1535 -1.00602,-0.8364 0.008,-0.04 z m -9.68572,0.4897 c -1.1704,1.5732 -5.02331,6.3449 -2.44225,1.8731 -0.10643,-1.2982 1.65142,-1.3949 2.44225,-1.8731 z m 19.97398,0.3769 c 1.9615,0.7109 2.3057,6.2337 0.8972,1.9165 0.45274,0.3548 -1.57712,-2.5856 -0.8972,-1.9165 z m -6.08129,0.2602 c 0.28118,1.445 3.1728,7.7097 1.48366,6.8989 -0.72389,-2.0955 -3.0126,-4.7324 -1.48366,-6.8989 z m 6.96081,3.1009 c 2.54164,2.6159 -1.34551,4.4936 -0.73305,0.4681 -0.0727,-0.9184 0.42945,-1.9825 0.73305,-0.4681 z m 1.37044,1.3954 0.0269,0.053 z"
     id="path833"
     inkscape:connector-curvature="0" />
  <path
     style="fill:none;stroke:#000000;stroke-width:1.44793284;stroke-linecap:butt;stroke-linejoin:miter;stroke-miterlimit:4;stroke-dasharray:none;stroke-opacity:1"
     d="m 289.82784,53.063346 c 160.17216,0 160.17216,0 160.17216,0"
     id="path859"
     inkscape:connector-curvature="0" />
  <path
     style="fill:none;stroke:#000000;stroke-width:1.44793284;stroke-linecap:butt;stroke-linejoin:miter;stroke-miterlimit:4;stroke-dasharray:none;stroke-opacity:1"
     d="m 0,53.063346 c 160.17214,0 160.17214,0 160.17214,0"
     id="path859-4"
     inkscape:connector-curvature="0" />
</svg>
